<mxfile host="Electron" agent="Mozilla/5.0 (Macintosh; Intel Mac OS X 10_15_7) AppleWebKit/537.36 (KHTML, like Gecko) draw.io/24.7.5 Chrome/126.0.6478.183 Electron/31.3.0 Safari/537.36" version="24.7.5">
  <diagram name="Page-1" id="7wjsmiIgki6xfGwrt4ze">
    <mxGraphModel dx="1578" dy="1143" grid="1" gridSize="10" guides="1" tooltips="1" connect="1" arrows="1" fold="1" page="1" pageScale="1" pageWidth="850" pageHeight="1100" math="0" shadow="0">
      <root>
        <mxCell id="0" />
        <mxCell id="1" parent="0" />
        <mxCell id="OJRusn0S9WetoyBH75iF-20" value="" style="rounded=0;whiteSpace=wrap;html=1;fillColor=#232F3C;strokeColor=#FFFFFF;" vertex="1" parent="1">
          <mxGeometry x="40" y="40" width="1360" height="440" as="geometry" />
        </mxCell>
        <mxCell id="OJRusn0S9WetoyBH75iF-19" value="" style="shape=image;verticalLabelPosition=bottom;labelBackgroundColor=default;verticalAlign=top;aspect=fixed;imageAspect=0;image=data:image/svg+xml,PHN2ZyB4bWxuczp4bGluaz0iaHR0cDovL3d3dy53My5vcmcvMTk5OS94bGluayIgeG1sbnM9Imh0dHA6Ly93d3cudzMub3JnLzIwMDAvc3ZnIiB2ZXJzaW9uPSIxLjEiIHZpZXdCb3g9IjAgMCA0MCA0MCIgaGVpZ2h0PSI0MHB4IiB3aWR0aD0iNDBweCI+JiN4YTsgICAgPHRpdGxlPkljb24tQXJjaGl0ZWN0dXJlLUdyb3VwLzMyL0FXUy1DbG91ZC1sb2dvXzMyX0Rhcms8L3RpdGxlPiYjeGE7ICAgIDxnIGZpbGwtcnVsZT0iZXZlbm9kZCIgZmlsbD0ibm9uZSIgc3Ryb2tlLXdpZHRoPSIxIiBzdHJva2U9Im5vbmUiIGlkPSJJY29uLUFyY2hpdGVjdHVyZS1Hcm91cC8zMi9BV1MtQ2xvdWQtbG9nb18zMiI+JiN4YTsgICAgICAgIDxyZWN0IGhlaWdodD0iNDAiIHdpZHRoPSI0MCIgeT0iMCIgeD0iMCIgZmlsbD0iI0ZGRkZGRiIgaWQ9IlJlY3RhbmdsZSIvPiYjeGE7ICAgICAgICA8cGF0aCBmaWxsPSIjMjMyRjNFIiBpZD0iRmlsbC0xIiBkPSJNMzIuNjk4MiwyMy45MDA4IEMzMy4wNTkyLDI0LjM2OTggMzIuMjk4MiwyNi4yOTk4IDMxLjk1NzIsMjcuMTYzOCBDMzEuODUzMiwyNy40MjU4IDMyLjA3NTIsMjcuNTI4OCAzMi4zMDcyLDI3LjMzMTggQzMzLjgyMDIsMjYuMDQ3OCAzNC4yMTIyLDIzLjM1NjggMzMuOTAxMiwyMi45Njg4IEMzMy41OTQyLDIyLjU4MjggMzAuOTUwMiwyMi4yNTE4IDI5LjMzODIsMjMuNDAwOCBDMjkuMDg5MiwyMy41Nzc4IDI5LjEzMjIsMjMuODIxOCAyOS40MDcyLDIzLjc4OTggQzMwLjMxNTIsMjMuNjc3OCAzMi4zMzgyLDIzLjQzMjggMzIuNjk4MiwyMy45MDA4IEwzMi42OTgyLDIzLjkwMDggWiBNMzEuODU2MiwyNS45MDk4IEMzMi4zNzQyLDI1LjUzMTggMzEuOTMwMiwyNC45Njg4IDMxLjQwMjIsMjUuMTg5OCBDMjcuODg5MiwyNi42NTM4IDI0LjA3NTIsMjcuMzYyOCAyMC42MDIyLDI3LjM2MjggQzE1LjQ1OTIsMjcuMzYyOCAxMC40NzUyLDI1Ljk3MzggNi40NDYyLDIzLjY2NzggQzYuMDk0MiwyMy40NjU4IDUuODMzMiwyMy44MjI4IDYuMTI3MiwyNC4wODE4IEM5Ljg2MDIsMjcuMzk3OCAxNC43OTYyLDI5LjM5MDggMjAuMjc0MiwyOS4zOTA4IEMyNC4xODQyLDI5LjM5MDggMjguNzI1MiwyOC4xODI4IDMxLjg1NjIsMjUuOTA5OCBMMzEuODU2MiwyNS45MDk4IFogTTI5LjcxMjIsMjAuNjk0OCBDMjkuMjE0MiwyMC42OTQ4IDI4LjcyNzIsMjAuNjQxOCAyOC4yNTMyLDIwLjUzMzggQzI3Ljc3NzIsMjAuNDI0OCAyNy40MTMyLDIwLjMwMTggMjcuMTYwMiwyMC4xNjA4IEMyNy4wMDUyLDIwLjA3NjggMjYuOTA4MiwxOS45ODg4IDI2Ljg2OTIsMTkuOTAyOCBDMjYuODMxMiwxOS44MTQ4IDI2LjgxMTIsMTkuNzI4OCAyNi44MTEyLDE5LjY0MjggTDI2LjgxMTIsMTkuMTczOCBDMjYuODExMiwxOC45Nzk4IDI2Ljg4NDIsMTguODgwOCAyNy4wMjcyLDE4Ljg4MDggQzI3LjA4MjIsMTguODgwOCAyNy4xNDAyLDE4Ljg5MzggMjcuMjAwMiwxOC45MTM4IEMyNy4yNjEyLDE4LjkzNjggMjcuMzQxMiwxOC45Njg4IDI3LjQ0MTIsMTkuMDExOCBDMjcuNzYxMiwxOS4xNTI4IDI4LjEwODIsMTkuMjU5OCAyOC40ODUyLDE5LjMzNTggQzI4Ljg2MTIsMTkuNDEwOCAyOS4yMzYyLDE5LjQ0ODggMjkuNjExMiwxOS40NDg4IEMzMC4yMDgyLDE5LjQ0ODggMzAuNjY5MiwxOS4zNDY4IDMwLjk5NTIsMTkuMTQwOCBDMzEuMzIyMiwxOC45MzY4IDMxLjQ4NDIsMTguNjQ1OCAzMS40ODQyLDE4LjI2NzggQzMxLjQ4NDIsMTguMDA3OCAzMS4zOTkyLDE3Ljc5MjggMzEuMjI3MiwxNy42MTg4IEMzMS4wNTYyLDE3LjQ0NDggMzAuNzM4MiwxNy4yODU4IDMwLjI3NTIsMTcuMTMzOCBMMjguOTAwMiwxNi43MTI4IEMyOC4yMDMyLDE2LjQ5NjggMjcuNjk4MiwxNi4xODM4IDI3LjM4MzIsMTUuNzc0OCBDMjcuMDY4MiwxNS4zNjI4IDI2LjkxMTIsMTQuOTE1OCAyNi45MTEyLDE0LjQyNzggQzI2LjkxMTIsMTQuMDQwOCAyNi45OTYyLDEzLjY5ODggMjcuMTY5MiwxMy40MDA4IEMyNy4zMzkyLDEzLjEwMzggMjcuNTY0MiwxMi44NTA4IDI3Ljg0NTIsMTIuNjM5OCBDMjguMTMwMiwxMi40Mjk4IDI4LjQ1OTIsMTIuMjcxOCAyOC44MzQyLDEyLjE2MTggQzI5LjIwODIsMTIuMDU0OCAyOS42MDYyLDExLjk5OTggMzAuMDI2MiwxMS45OTk4IEMzMC4yMzYyLDExLjk5OTggMzAuNDQ5MiwxMi4wMTM4IDMwLjY2NjIsMTIuMDQwOCBDMzAuODgxMiwxMi4wNjY4IDMxLjA4NTIsMTIuMTAyOCAzMS4yNzgyLDEyLjE0NTggQzMxLjQ3MTIsMTIuMTkwOCAzMS42NTEyLDEyLjIzODggMzEuODE2MiwxMi4yOTE4IEMzMS45ODIyLDEyLjM0NjggMzIuMTE0MiwxMi40MDA4IDMyLjIxNTIsMTIuNDUzOCBDMzIuMzQ2MiwxMi41Mjg4IDMyLjQzOTIsMTIuNjA0OCAzMi40OTYyLDEyLjY4MDggQzMyLjU1MTIsMTIuNzU1OCAzMi41NzkyLDEyLjg1NzggMzIuNTc5MiwxMi45ODg4IEwzMi41NzkyLDEzLjQyNDggQzMyLjU3OTIsMTMuNjE5OCAzMi41MDcyLDEzLjcxNTggMzIuMzYyMiwxMy43MTU4IEMzMi4yODUyLDEzLjcxNTggMzIuMTY1MiwxMy42Nzk4IDMxLjk5ODIsMTMuNjAzOCBDMzEuNDU4MiwxMy4zNjQ4IDMwLjg0ODIsMTMuMjQ3OCAzMC4xNzcyLDEzLjI0NzggQzI5LjYzNTIsMTMuMjQ3OCAyOS4yMTQyLDEzLjMzMzggMjguOTE2MiwxMy41MDU4IEMyOC42MTcyLDEzLjY3OTggMjguNDY4MiwxMy45NTQ4IDI4LjQ2ODIsMTQuMzMyOCBDMjguNDY4MiwxNC41OTA4IDI4LjU2MjIsMTQuODA5OCAyOC43NTEyLDE0Ljk4NzggQzI4LjkzOTIsMTUuMTY1OCAyOS4yODYyLDE1LjMzNTggMjkuNzk1MiwxNS40OTg4IEwzMS4xMzcyLDE1LjkyMDggQzMxLjgyMjIsMTYuMTM0OCAzMi4zMTEyLDE2LjQzMjggMzIuNjAzMiwxNi44MDg4IEMzMi44OTcyLDE3LjE4NzggMzMuMDQ0MiwxNy42MTg4IDMzLjA0NDIsMTguMTAzOCBDMzMuMDQ0MiwxOC41MDQ4IDMyLjk2MTIsMTguODYzOCAzMi43OTQyLDE5LjE4MTggQzMyLjYyODIsMTkuNTAwOCAzMi4zOTkyLDE5Ljc3MTggMzIuMTA1MiwxOS45OTg4IEMzMS44MTMyLDIwLjIyNTggMzEuNDYzMiwyMC4zOTc4IDMxLjA1NDIsMjAuNTE2OCBDMzAuNjQ0MiwyMC42MzY4IDMwLjE5NzIsMjAuNjk0OCAyOS43MTIyLDIwLjY5NDggTDI5LjcxMjIsMjAuNjk0OCBaIE0xNy41NDcyLDIwLjQ1MDggQzE3LjM4MTIsMjAuNDUwOCAxNy4yNjAyLDIwLjQyMzggMTcuMTgyMiwyMC4zNjM4IEMxNy4xMDQyLDIwLjMwMjggMTcuMDM4MiwyMC4xODI4IDE2Ljk4MzIsMTkuOTk4OCBMMTQuNzYxMiwxMi44NDE4IEMxNC43MDgyLDEyLjY1NzggMTQuNjc5MiwxMi41MzQ4IDE0LjY3OTIsMTIuNDcwOCBDMTQuNjc5MiwxMi4zMTk4IDE0Ljc1NzIsMTIuMjQzOCAxNC45MTIyLDEyLjI0MzggTDE1LjgzOTIsMTIuMjQzOCBDMTYuMDE2MiwxMi4yNDM4IDE2LjE0MDIsMTIuMjczOCAxNi4yMTMyLDEyLjMzMzggQzE2LjI4NDIsMTIuMzkxOCAxNi4zNDcyLDEyLjUxMTggMTYuNDAyMiwxMi42OTc4IEwxNy45OTMyLDE4LjgxNzggTDE5LjQ3MDIsMTIuNjk3OCBDMTkuNTE0MiwxMi41MTE4IDE5LjU3NDIsMTIuMzkxOCAxOS42NTEyLDEyLjMzMzggQzE5LjcyODIsMTIuMjczOCAxOS44NTUyLDEyLjI0MzggMjAuMDMxMiwxMi4yNDM4IEwyMC43OTYyLDEyLjI0MzggQzIwLjk3MTIsMTIuMjQzOCAyMS4wOTgyLDEyLjI3MzggMjEuMTc2MiwxMi4zMzM4IEMyMS4yNTMyLDEyLjM5MTggMjEuMzE0MiwxMi41MTE4IDIxLjM1ODIsMTIuNjk3OCBMMjIuODUxMiwxOC44OTg4IEwyNC40OTEyLDEyLjY5NzggQzI0LjU0NjIsMTIuNTExOCAyNC42MDkyLDEyLjM5MTggMjQuNjgxMiwxMi4zMzM4IEMyNC43NTQyLDEyLjI3MzggMjQuODc3MiwxMi4yNDM4IDI1LjA1NDIsMTIuMjQzOCBMMjUuOTMyMiwxMi4yNDM4IEMyNi4wODgyLDEyLjI0MzggMjYuMTY1MiwxMi4zMTk4IDI2LjE2NTIsMTIuNDcwOCBDMjYuMTY1MiwxMi41MTE4IDI2LjE1ODIsMTIuNTYxOCAyNi4xNDkyLDEyLjYxNDggQzI2LjEzNjIsMTIuNjcwOCAyNi4xMTYyLDEyLjc0NTggMjYuMDgxMiwxMi44NDE4IEwyMy43OTUyLDE5Ljk5ODggQzIzLjc0MDIsMjAuMTgyOCAyMy42NzMyLDIwLjMwMjggMjMuNTk1MiwyMC4zNjM4IEMyMy41MTgyLDIwLjQyMzggMjMuMzk2MiwyMC40NTA4IDIzLjIzMTIsMjAuNDUwOCBMMjIuNDE4MiwyMC40NTA4IEMyMi4yNDIyLDIwLjQ1MDggMjIuMTE1MiwyMC40MjA4IDIyLjAzODIsMjAuMzU2OCBDMjEuOTYxMiwyMC4yOTE4IDIxLjkwMDIsMjAuMTY1OCAyMS44NTYyLDE5Ljk4MzggTDIwLjM4MDIsMTQuMDIzOCBMMTguOTIzMiwxOS45ODM4IEMxOC44NzkyLDIwLjE2NTggMTguODE3MiwyMC4yOTE4IDE4Ljc0MDIsMjAuMzU2OCBDMTguNjYyMiwyMC40MjA4IDE4LjUzNjIsMjAuNDUwOCAxOC4zNTkyLDIwLjQ1MDggTDE3LjU0NzIsMjAuNDUwOCBaIE05LjkzOTIsMTkuNDQ4OCBDMTAuMjUwMiwxOS40NDg4IDEwLjU3NTIsMTkuMzkxOCAxMC45MTgyLDE5LjI3ODggQzExLjI2MDIsMTkuMTY0OCAxMS41NTgyLDE4Ljk2ODggMTEuODEyMiwxOC42ODY4IEMxMS45NjgyLDE4LjUxNDggMTIuMDc0MiwxOC4zMTc4IDEyLjEzNjIsMTguMDk1OCBDMTIuMTk2MiwxNy44NzU4IDEyLjIyNTIsMTcuNjA4OCAxMi4yMjUyLDE3LjI5NDggTDEyLjIyNTIsMTYuOTA2OCBDMTEuOTUxMiwxNi44NDE4IDExLjY2MTIsMTYuNzkwOCAxMS4zNTYyLDE2Ljc1MjggQzExLjA1MjIsMTYuNzE1OCAxMC43NTcyLDE2LjY5NTggMTAuNDY5MiwxNi42OTU4IEM5Ljg0MDIsMTYuNjk1OCA5LjM2OTIsMTYuODE5OCA5LjA2MTIsMTcuMDY4OCBDOC43NTIyLDE3LjMxNjggOC41OTYyLDE3LjY3MTggOC41OTYyLDE4LjEzODggQzguNTk2MiwxOC41Njk4IDguNzEzMiwxOC44OTQ4IDguOTQ1MiwxOS4xMTY4IEM5LjE3NzIsMTkuMzM4OCA5LjUwOTIsMTkuNDQ4OCA5LjkzOTIsMTkuNDQ4OCBMOS45MzkyLDE5LjQ0ODggWiBNMTMuNzg1MiwxOC4wNDA4IEMxMy43ODUyLDE4LjM4NTggMTMuODIwMiwxOC42NTk4IDEzLjg5MjIsMTguODY1OCBDMTMuOTY1MiwxOS4wNzE4IDE0LjA2NzIsMTkuMjkzOCAxNC4xOTkyLDE5LjUyOTggQzE0LjI0MzIsMTkuNjA1OCAxNC4yNjUyLDE5LjY3NTggMTQuMjY1MiwxOS43Mzg4IEMxNC4yNjUyLDE5LjgzNzggMTQuMjA0MiwxOS45Mjk4IDE0LjA4MzIsMjAuMDE0OCBMMTMuNDg2MiwyMC40MDQ4IEMxMy4zOTgyLDIwLjQ1NzggMTMuMzE1MiwyMC40ODU4IDEzLjIzODIsMjAuNDg1OCBDMTMuMTM3MiwyMC40ODU4IDEzLjA0NDIsMjAuNDQyOCAxMi45NTYyLDIwLjM1NjggQzEyLjgyMjIsMjAuMjI1OCAxMi43MTAyLDIwLjA4MzggMTIuNjE3MiwxOS45MjY4IEMxMi41MjEyLDE5Ljc3MDggMTIuNDI1MiwxOS41ODc4IDEyLjMyNjIsMTkuMzgyOCBDMTEuNTg1MiwyMC4yMzU4IDEwLjY1ODIsMjAuNjYyOCA5LjU0MjIsMjAuNjYyOCBDOC43NDYyLDIwLjY2MjggOC4xMTYyLDIwLjQ0MjggNy42NTEyLDE5Ljk5ODggQzcuMTg4MiwxOS41NTY4IDYuOTU2MiwxOC45NjI4IDYuOTU2MiwxOC4yMTg4IEM2Ljk1NjIsMTcuNDMxOCA3LjI0MzIsMTYuNzk1OCA3LjgxOTIsMTYuMzE1OCBDOC4zOTIyLDE1LjgzNTggOS4xNjcyLDE1LjU5NDggMTAuMTM4MiwxNS41OTQ4IEMxMC40NTkyLDE1LjU5NDggMTAuNzkzMiwxNS42MTk4IDExLjE0MTIsMTUuNjY3OCBDMTEuNDg4MiwxNS43MTU4IDExLjg1MTIsMTUuNzg0OCAxMi4yMjUyLDE1Ljg3MDggTDEyLjIyNTIsMTUuMTkxOCBDMTIuMjI1MiwxNC40ODk4IDEyLjA3ODIsMTMuOTk1OCAxMS43NzkyLDEzLjcwODggQzExLjQ4MTIsMTMuNDIyOCAxMC45NjgyLDEzLjI4MDggMTAuMjM5MiwxMy4yODA4IEM5LjkwNjIsMTMuMjgwOCA5LjU2NjIsMTMuMzE5OCA5LjIxODIsMTMuNDAwOCBDOC44NzEyLDEzLjQ4MTggOC41MzAyLDEzLjU4NjggOC4xOTkyLDEzLjcxNTggQzguMDQ0MiwxMy43ODA4IDcuOTMzMiwxMy44MjE4IDcuODY4MiwxMy44Mzc4IEM3LjgwMjIsMTMuODUzOCA3Ljc1MjIsMTMuODYxOCA3LjcxOTIsMTMuODYxOCBDNy41ODcyLDEzLjg2MTggNy41MTkyLDEzLjc2NTggNy41MTkyLDEzLjU2OTggTDcuNTE5MiwxMy4xMTc4IEM3LjUxOTIsMTIuOTY1OCA3LjU0MzIsMTIuODU3OCA3LjU4NzIsMTIuNzk0OCBDNy42MzEyLDEyLjcyODggNy43MTkyLDEyLjY2MzggNy44NTIyLDEyLjU5OTggQzguMTgzMiwxMi40MzY4IDguNTgxMiwxMi4yOTY4IDkuMDQ0MiwxMi4xNzg4IEM5LjUwOTIsMTIuMDU5OCAxMC4wMDAyLDExLjk5OTggMTAuNTIwMiwxMS45OTk4IEMxMS42NDYyLDExLjk5OTggMTIuNDcyMiwxMi4yNTI4IDEyLjk5NzIsMTIuNzUyOCBDMTMuNTIxMiwxMy4yNTQ4IDEzLjc4NTIsMTQuMDEyOCAxMy43ODUyLDE1LjAyNzggTDEzLjc4NTIsMTguMDQwOCBaIi8+JiN4YTsgICAgPC9nPiYjeGE7PC9zdmc+;" vertex="1" parent="1">
          <mxGeometry x="40" y="40" width="40" height="40" as="geometry" />
        </mxCell>
        <mxCell id="OJRusn0S9WetoyBH75iF-25" value="" style="shape=image;verticalLabelPosition=bottom;labelBackgroundColor=default;verticalAlign=top;aspect=fixed;imageAspect=0;image=data:image/svg+xml,PHN2ZyB4bWxuczp4bGluaz0iaHR0cDovL3d3dy53My5vcmcvMTk5OS94bGluayIgeG1sbnM9Imh0dHA6Ly93d3cudzMub3JnLzIwMDAvc3ZnIiB2ZXJzaW9uPSIxLjEiIHZpZXdCb3g9IjAgMCA0MCA0MCIgaGVpZ2h0PSI0MHB4IiB3aWR0aD0iNDBweCI+JiN4YTsgICAgPHRpdGxlPkljb24tQXJjaGl0ZWN0dXJlLUdyb3VwLzMyL0VDMi1pbnN0YW5jZS1jb250ZW50c18zMjwvdGl0bGU+JiN4YTsgICAgPGcgZmlsbC1ydWxlPSJldmVub2RkIiBmaWxsPSJub25lIiBzdHJva2Utd2lkdGg9IjEiIHN0cm9rZT0ibm9uZSIgaWQ9Ikljb24tQXJjaGl0ZWN0dXJlLUdyb3VwLzMyL0VDMi1pbnN0YW5jZS1jb250ZW50c18zMiI+JiN4YTsgICAgICAgIDxyZWN0IGhlaWdodD0iNDAiIHdpZHRoPSI0MCIgeT0iMCIgeD0iMCIgZmlsbD0iI0VENzEwMCIgaWQ9IlJlY3RhbmdsZSIvPiYjeGE7ICAgICAgICA8cGF0aCBmaWxsPSIjRkZGRkZGIiBpZD0iRmlsbC0xIiBkPSJNMTAsMjkgTDI5LDI5IEwyOSwxMCBMMTAsMTAgTDEwLDI5IFogTTMzLDEyIEwzMywxMSBMMzAsMTEgTDMwLDkuNSBDMzAsOS4yMjQgMjkuNzc2LDkgMjkuNSw5IEwyOCw5IEwyOCw2IEwyNyw2IEwyNyw5IEwyNCw5IEwyNCw2IEwyMyw2IEwyMyw5IEwyMCw5IEwyMCw2IEwxOSw2IEwxOSw5IEwxNiw5IEwxNiw2IEwxNSw2IEwxNSw5IEwxMiw5IEwxMiw2IEwxMSw2IEwxMSw5IEw5LjUsOSBDOS4yMjQsOSA5LDkuMjI0IDksOS41IEw5LDExIEw2LDExIEw2LDEyIEw5LDEyIEw5LDE1IEw2LDE1IEw2LDE2IEw5LDE2IEw5LDE5IEw2LDE5IEw2LDIwIEw5LDIwIEw5LDIzIEw2LDIzIEw2LDI0IEw5LDI0IEw5LDI3IEw2LDI3IEw2LDI4IEw5LDI4IEw5LDI5LjUgQzksMjkuNzc2IDkuMjI0LDMwIDkuNSwzMCBMMTEsMzAgTDExLDMzIEwxMiwzMyBMMTIsMzAgTDE1LDMwIEwxNSwzMyBMMTYsMzMgTDE2LDMwIEwxOSwzMCBMMTksMzMgTDIwLDMzIEwyMCwzMCBMMjMsMzAgTDIzLDMzIEwyNCwzMyBMMjQsMzAgTDI3LDMwIEwyNywzMyBMMjgsMzMgTDI4LDMwIEwyOS41LDMwIEMyOS43NzYsMzAgMzAsMjkuNzc2IDMwLDI5LjUgTDMwLDI4IEwzMywyOCBMMzMsMjcgTDMwLDI3IEwzMCwyNCBMMzMsMjQgTDMzLDIzIEwzMCwyMyBMMzAsMjAgTDMzLDIwIEwzMywxOSBMMzAsMTkgTDMwLDE2IEwzMywxNiBMMzMsMTUgTDMwLDE1IEwzMCwxMiBMMzMsMTIgWiIvPiYjeGE7ICAgIDwvZz4mI3hhOzwvc3ZnPg==;" vertex="1" parent="1">
          <mxGeometry x="440" y="80" width="40" height="40" as="geometry" />
        </mxCell>
        <mxCell id="OJRusn0S9WetoyBH75iF-26" value="" style="rounded=0;whiteSpace=wrap;html=1;fillColor=none;strokeColor=#FD9831;" vertex="1" parent="1">
          <mxGeometry x="440" y="80" width="280" height="160" as="geometry" />
        </mxCell>
        <mxCell id="OJRusn0S9WetoyBH75iF-27" value="&lt;font color=&quot;#ffffff&quot;&gt;Worker Node&lt;/font&gt;" style="text;html=1;align=left;verticalAlign=middle;whiteSpace=wrap;rounded=0;spacingLeft=10;" vertex="1" parent="1">
          <mxGeometry x="480" y="80" width="120" height="40" as="geometry" />
        </mxCell>
        <mxCell id="OJRusn0S9WetoyBH75iF-42" style="edgeStyle=orthogonalEdgeStyle;rounded=0;orthogonalLoop=1;jettySize=auto;html=1;exitX=1;exitY=0.5;exitDx=0;exitDy=0;entryX=0;entryY=0.5;entryDx=0;entryDy=0;flowAnimation=1;strokeColor=#9D71F9;" edge="1" parent="1" source="OJRusn0S9WetoyBH75iF-28" target="OJRusn0S9WetoyBH75iF-36">
          <mxGeometry relative="1" as="geometry" />
        </mxCell>
        <mxCell id="OJRusn0S9WetoyBH75iF-28" value="OpenSearch &#xa;Coordinating Node" style="shape=image;verticalLabelPosition=bottom;labelBackgroundColor=none;verticalAlign=top;aspect=fixed;imageAspect=0;image=data:image/svg+xml,PHN2ZyB4bWxucz0iaHR0cDovL3d3dy53My5vcmcvMjAwMC9zdmciIHZlcnNpb249IjEuMSIgdmlld0JveD0iMCAwIDQ4IDQ4IiBoZWlnaHQ9IjQ4cHgiIHdpZHRoPSI0OHB4Ij4mI3hhOyAgPGRlZnMvPiYjeGE7ICA8dGl0bGU+SWNvbi1SZXNvdXJjZS9BbmFseXRpY3MvUmVzX0FtYXpvbi1PcGVuU2VhcmNoLVNlcnZpY2VfRGF0YS1Ob2RlXzQ4PC90aXRsZT4mI3hhOyAgPGcgZmlsbC1ydWxlPSJldmVub2RkIiBmaWxsPSJub25lIiBzdHJva2Utd2lkdGg9IjEiIHN0cm9rZT0ibm9uZSIgaWQ9Ikljb24tUmVzb3VyY2UvQW5hbHl0aWNzL1Jlc19BbWF6b24tT3BlblNlYXJjaC1TZXJ2aWNlX0RhdGEtTm9kZV80OCI+JiN4YTsgICAgPHBhdGggc3R5bGU9ImZpbGw6IHJnYigxNDAsIDc5LCAyNTUpOyIgaWQ9IkZpbGwtMSIgZD0iTSA0NiA3IEwgNDYgMjkgTCA0NCAyOSBMIDQ0IDcgQyA0NCA1LjM0NiA0Mi42NTQgNCA0MSA0IEwgNyA0IEMgNS4zNDYgNCA0IDUuMzQ2IDQgNyBMIDQgNDEgQyA0IDQyLjY1NSA1LjM0NiA0NCA3IDQ0IEwgMjkgNDQgTCAyOSA0NiBMIDcgNDYgQyA0LjI0MyA0NiAyIDQzLjc1NyAyIDQxIEwgMiA3IEMgMiA0LjI0MyA0LjI0MyAyIDcgMiBMIDQxIDIgQyA0My43NTcgMiA0NiA0LjI0MyA0NiA3IFoiLz4mI3hhOyAgPC9nPiYjeGE7ICA8ZyB0cmFuc2Zvcm09Im1hdHJpeCgwLjg2ODM4MiwgMCwgMCwgMC44NjgzODIsIDEzLjE3ODQ4LCA5Ljk4NjQ2MykiIGZpbGwtcnVsZT0iZXZlbm9kZCIgZmlsbD0ibm9uZSIgc3Ryb2tlLXdpZHRoPSIxIiBzdHJva2U9Im5vbmUiIGlkPSJJY29uLVJlc291cmNlL0dlbmVyYWwtUmVzb3VyY2UvUmVzX0dlbmVyaWMtUHJvZ3JhbW1pbmctTGFuZ3VhZ2VfNDgiPiYjeGE7ICAgIDxwYXRoIHN0eWxlPSJmaWxsOiByZ2IoMTQwLCA3OSwgMjU1KTsiIGlkPSJwYXRoLTEiIGQ9Ik0gMzEuNjMyIDE1LjUzOSBMIDIwLjYzMiA2LjU2MiBMIDE5LjM2OSA4LjExMSBMIDI5LjQyMSAxNi4zMTYgTCAxOS4zNjcgMjQuNTYzIEwgMjAuNjM0IDI2LjEwOSBMIDMxLjYzNCAxNy4wODcgQyAzMS44NjcgMTYuODk3IDMyIDE2LjYxMyAzMiAxNi4zMTMgQyAzMiAxNi4wMTMgMzEuODY1IDE1LjcyOSAzMS42MzIgMTUuNTM5IFogTSAyNC41OCAzMS4zMTYgTCAzNC42MzQgMzkuNTYzIEwgMzMuMzY3IDQxLjEwOSBMIDIyLjM2NyAzMi4wODcgQyAyMi4xMzQgMzEuODk3IDIyIDMxLjYxMyAyMiAzMS4zMTMgQyAyMiAzMS4wMTMgMjIuMTM2IDMwLjcyOSAyMi4zNjkgMzAuNTM5IEwgMzMuMzY5IDIxLjU2MiBMIDM0LjYzMiAyMy4xMTEgTCAyNC41OCAzMS4zMTYgWiIvPiYjeGE7ICA8L2c+JiN4YTs8L3N2Zz4=;fontColor=#FFFFFF;" vertex="1" parent="1">
          <mxGeometry x="551" y="136" width="48" height="48" as="geometry" />
        </mxCell>
        <mxCell id="OJRusn0S9WetoyBH75iF-33" value="" style="shape=image;verticalLabelPosition=bottom;labelBackgroundColor=default;verticalAlign=top;aspect=fixed;imageAspect=0;image=data:image/svg+xml,PHN2ZyB4bWxuczp4bGluaz0iaHR0cDovL3d3dy53My5vcmcvMTk5OS94bGluayIgeG1sbnM9Imh0dHA6Ly93d3cudzMub3JnLzIwMDAvc3ZnIiB2ZXJzaW9uPSIxLjEiIHZpZXdCb3g9IjAgMCA0MCA0MCIgaGVpZ2h0PSI0MHB4IiB3aWR0aD0iNDBweCI+JiN4YTsgICAgPHRpdGxlPkljb24tQXJjaGl0ZWN0dXJlLUdyb3VwLzMyL0VDMi1pbnN0YW5jZS1jb250ZW50c18zMjwvdGl0bGU+JiN4YTsgICAgPGcgZmlsbC1ydWxlPSJldmVub2RkIiBmaWxsPSJub25lIiBzdHJva2Utd2lkdGg9IjEiIHN0cm9rZT0ibm9uZSIgaWQ9Ikljb24tQXJjaGl0ZWN0dXJlLUdyb3VwLzMyL0VDMi1pbnN0YW5jZS1jb250ZW50c18zMiI+JiN4YTsgICAgICAgIDxyZWN0IGhlaWdodD0iNDAiIHdpZHRoPSI0MCIgeT0iMCIgeD0iMCIgZmlsbD0iI0VENzEwMCIgaWQ9IlJlY3RhbmdsZSIvPiYjeGE7ICAgICAgICA8cGF0aCBmaWxsPSIjRkZGRkZGIiBpZD0iRmlsbC0xIiBkPSJNMTAsMjkgTDI5LDI5IEwyOSwxMCBMMTAsMTAgTDEwLDI5IFogTTMzLDEyIEwzMywxMSBMMzAsMTEgTDMwLDkuNSBDMzAsOS4yMjQgMjkuNzc2LDkgMjkuNSw5IEwyOCw5IEwyOCw2IEwyNyw2IEwyNyw5IEwyNCw5IEwyNCw2IEwyMyw2IEwyMyw5IEwyMCw5IEwyMCw2IEwxOSw2IEwxOSw5IEwxNiw5IEwxNiw2IEwxNSw2IEwxNSw5IEwxMiw5IEwxMiw2IEwxMSw2IEwxMSw5IEw5LjUsOSBDOS4yMjQsOSA5LDkuMjI0IDksOS41IEw5LDExIEw2LDExIEw2LDEyIEw5LDEyIEw5LDE1IEw2LDE1IEw2LDE2IEw5LDE2IEw5LDE5IEw2LDE5IEw2LDIwIEw5LDIwIEw5LDIzIEw2LDIzIEw2LDI0IEw5LDI0IEw5LDI3IEw2LDI3IEw2LDI4IEw5LDI4IEw5LDI5LjUgQzksMjkuNzc2IDkuMjI0LDMwIDkuNSwzMCBMMTEsMzAgTDExLDMzIEwxMiwzMyBMMTIsMzAgTDE1LDMwIEwxNSwzMyBMMTYsMzMgTDE2LDMwIEwxOSwzMCBMMTksMzMgTDIwLDMzIEwyMCwzMCBMMjMsMzAgTDIzLDMzIEwyNCwzMyBMMjQsMzAgTDI3LDMwIEwyNywzMyBMMjgsMzMgTDI4LDMwIEwyOS41LDMwIEMyOS43NzYsMzAgMzAsMjkuNzc2IDMwLDI5LjUgTDMwLDI4IEwzMywyOCBMMzMsMjcgTDMwLDI3IEwzMCwyNCBMMzMsMjQgTDMzLDIzIEwzMCwyMyBMMzAsMjAgTDMzLDIwIEwzMywxOSBMMzAsMTkgTDMwLDE2IEwzMywxNiBMMzMsMTUgTDMwLDE1IEwzMCwxMiBMMzMsMTIgWiIvPiYjeGE7ICAgIDwvZz4mI3hhOzwvc3ZnPg==;" vertex="1" parent="1">
          <mxGeometry x="760" y="80" width="40" height="40" as="geometry" />
        </mxCell>
        <mxCell id="OJRusn0S9WetoyBH75iF-34" value="" style="rounded=0;whiteSpace=wrap;html=1;fillColor=none;strokeColor=#FD9831;" vertex="1" parent="1">
          <mxGeometry x="760" y="80" width="280" height="160" as="geometry" />
        </mxCell>
        <mxCell id="OJRusn0S9WetoyBH75iF-35" value="&lt;font color=&quot;#ffffff&quot;&gt;Worker Node&lt;/font&gt;" style="text;html=1;align=left;verticalAlign=middle;whiteSpace=wrap;rounded=0;spacingLeft=10;" vertex="1" parent="1">
          <mxGeometry x="800" y="80" width="120" height="40" as="geometry" />
        </mxCell>
        <mxCell id="OJRusn0S9WetoyBH75iF-64" style="edgeStyle=orthogonalEdgeStyle;rounded=0;orthogonalLoop=1;jettySize=auto;html=1;entryX=0.5;entryY=0;entryDx=0;entryDy=0;strokeColor=#9D71F9;flowAnimation=1;" edge="1" parent="1" source="OJRusn0S9WetoyBH75iF-36" target="OJRusn0S9WetoyBH75iF-55">
          <mxGeometry relative="1" as="geometry">
            <Array as="points">
              <mxPoint x="900" y="260" />
              <mxPoint x="575" y="260" />
            </Array>
          </mxGeometry>
        </mxCell>
        <mxCell id="OJRusn0S9WetoyBH75iF-65" style="edgeStyle=orthogonalEdgeStyle;rounded=0;orthogonalLoop=1;jettySize=auto;html=1;exitX=0.5;exitY=1;exitDx=0;exitDy=0;entryX=0.5;entryY=0;entryDx=0;entryDy=0;strokeColor=#9D71F9;" edge="1" parent="1" source="OJRusn0S9WetoyBH75iF-36" target="OJRusn0S9WetoyBH75iF-59">
          <mxGeometry relative="1" as="geometry" />
        </mxCell>
        <mxCell id="OJRusn0S9WetoyBH75iF-66" style="edgeStyle=orthogonalEdgeStyle;rounded=0;orthogonalLoop=1;jettySize=auto;html=1;entryX=0.5;entryY=0;entryDx=0;entryDy=0;flowAnimation=1;strokeColor=#9D71F9;" edge="1" parent="1" source="OJRusn0S9WetoyBH75iF-36" target="OJRusn0S9WetoyBH75iF-63">
          <mxGeometry relative="1" as="geometry">
            <Array as="points">
              <mxPoint x="900" y="260" />
              <mxPoint x="1215" y="260" />
            </Array>
          </mxGeometry>
        </mxCell>
        <mxCell id="OJRusn0S9WetoyBH75iF-36" value="OpenSearch&#xa;Manager Node" style="shape=image;verticalLabelPosition=bottom;labelBackgroundColor=none;verticalAlign=top;aspect=fixed;imageAspect=0;image=data:image/svg+xml,PHN2ZyB4bWxuczp4bGluaz0iaHR0cDovL3d3dy53My5vcmcvMTk5OS94bGluayIgeG1sbnM9Imh0dHA6Ly93d3cudzMub3JnLzIwMDAvc3ZnIiB2ZXJzaW9uPSIxLjEiIHZpZXdCb3g9IjAgMCA0OCA0OCIgaGVpZ2h0PSI0OHB4IiB3aWR0aD0iNDhweCI+JiN4YTsgICAgPHRpdGxlPkljb24tUmVzb3VyY2UvQW5hbHl0aWNzL1Jlc19BbWF6b24tT3BlblNlYXJjaC1TZXJ2aWNlX0NsdXN0ZXItQWRtaW5pc3RyYXRvci1Ob2RlXzQ4PC90aXRsZT4mI3hhOyAgICA8ZyBmaWxsLXJ1bGU9ImV2ZW5vZGQiIGZpbGw9Im5vbmUiIHN0cm9rZS13aWR0aD0iMSIgc3Ryb2tlPSJub25lIiBpZD0iSWNvbi1SZXNvdXJjZS9BbmFseXRpY3MvUmVzX0FtYXpvbi1PcGVuU2VhcmNoLVNlcnZpY2VfQ2x1c3Rlci1BZG1pbmlzdHJhdG9yLU5vZGVfNDgiPiYjeGE7ICAgICAgICA8cGF0aCBmaWxsPSIjOEM0RkZGIiBpZD0iRmlsbC0xIiBkPSJNMzYuODY4LDMzIEMzNi44NjgsMzAuOTYyIDM1LjIxLDI5LjMwNCAzMy4xNzIsMjkuMzA0IEMzMS4xMzQsMjkuMzA0IDI5LjQ3NiwzMC45NjIgMjkuNDc2LDMzIEMyOS40NzYsMzUuMDM4IDMxLjEzNCwzNi42OTYgMzMuMTcyLDM2LjY5NiBDMzUuMjEsMzYuNjk2IDM2Ljg2OCwzNS4wMzggMzYuODY4LDMzIEwzNi44NjgsMzMgWiBNMzguODY4LDMzIEMzOC44NjgsMzYuMTQxIDM2LjMxMiwzOC42OTYgMzMuMTcyLDM4LjY5NiBDMzAuMDMxLDM4LjY5NiAyNy40NzYsMzYuMTQxIDI3LjQ3NiwzMyBDMjcuNDc2LDI5Ljg1OSAzMC4wMzEsMjcuMzA0IDMzLjE3MiwyNy4zMDQgQzM2LjMxMiwyNy4zMDQgMzguODY4LDI5Ljg1OSAzOC44NjgsMzMgTDM4Ljg2OCwzMyBaIE00NC4xNzIsMzEuNjczIEw0My4yMzYsMzEuNzI3IEM0Mi43NzcsMzEuNzUgNDIuMzExLDMxLjQyNiA0Mi4yMDQsMzAuOTQ5IEM0MS45NzIsMjkuOTI1IDQxLjU3LDI4Ljk1NCA0MS4wMDgsMjguMDY1IEM0MC43NDcsMjcuNjUxIDQwLjgyMywyNy4xMSA0MS4xODcsMjYuNzg1IEw0MS44ODgsMjYuMTYgTDQwLjAxMiwyNC4yODQgTDM5LjM4NCwyNC45ODggQzM5LjA1NiwyNS4zNTMgMzguNTE1LDI1LjQyOCAzOC4xMDMsMjUuMTY3IEMzNy4yMTYsMjQuNjA2IDM2LjI0NywyNC4yMDUgMzUuMjIyLDIzLjk3MyBDMzQuNzQ2LDIzLjg2NSAzNC40MTcsMjMuNDI5IDM0LjQ0NSwyMi45NDEgTDM0LjQ5OCwyMiBMMzEuODQ2LDIyIEwzMS44OTksMjIuOTM5IEMzMS45MjgsMjMuNDI4IDMxLjU5OCwyMy44NjQgMzEuMTIyLDIzLjk3MiBDMzAuMDk2LDI0LjIwNCAyOS4xMjUsMjQuNjA1IDI4LjIzOCwyNS4xNjYgQzI3LjgyNCwyNS40MjYgMjcuMjgyLDI1LjM1MSAyNi45NTgsMjQuOTg2IEwyNi4zMzIsMjQuMjg0IEwyNC40NTYsMjYuMTYgTDI1LjE1OCwyNi43ODYgQzI1LjUyMywyNy4xMTIgMjUuNTk5LDI3LjY1NCAyNS4zMzgsMjguMDY3IEMyNC43NzUsMjguOTU3IDI0LjM3MiwyOS45MjYgMjQuMTQsMzAuOTUgQzI0LjAzMSwzMS40MjYgMjMuNTYxLDMxLjc1IDIzLjEwOCwzMS43MjcgTDIyLjE3MiwzMS42NzMgTDIyLjE3MiwzNC4zMjYgTDIzLjEwNSwzNC4yNzMgQzIzLjU2OSwzNC4yNTUgMjQuMDMxLDM0LjU3NSAyNC4xMzgsMzUuMDUzIEMyNC4zNjcsMzYuMDc2IDI0Ljc2OSwzNy4wNDcgMjUuMzMyLDM3Ljk0IEMyNS41OTMsMzguMzU0IDI1LjUxNiwzOC44OTUgMjUuMTUxLDM5LjIyIEwyNC40NTYsMzkuODQgTDI2LjMzMiw0MS43MTYgTDI2Ljk1Myw0MS4wMiBDMjcuMjc4LDQwLjY1MyAyNy44MjEsNDAuNTc5IDI4LjIzMyw0MC44NCBDMjkuMTI1LDQxLjQwNCAzMC4wOTcsNDEuODA3IDMxLjEyMiw0Mi4wMzggQzMxLjU5OCw0Mi4xNDYgMzEuOTI4LDQyLjU4MyAzMS44OTksNDMuMDcxIEwzMS44NDcsNDQgTDM0LjQ5OCw0NCBMMzQuNDQ1LDQzLjA3MiBDMzQuNDE3LDQyLjU4MyAzNC43NDYsNDIuMTQ3IDM1LjIyMiw0Mi4wNCBDMzYuMjUxLDQxLjgwNyAzNy4yMjMsNDEuNDA0IDM4LjExMyw0MC44NDIgQzM4LjUyNSw0MC41ODIgMzkuMDY3LDQwLjY1NiAzOS4zOTMsNDEuMDIyIEw0MC4wMTMsNDEuNzE2IEw0MS44ODgsMzkuODQgTDQxLjE5LDM5LjIxOCBDNDAuODI2LDM4Ljg5MyA0MC43NSwzOC4zNTIgNDEuMDExLDM3LjkzOCBDNDEuNTczLDM3LjA0NSA0MS45NzUsMzYuMDc0IDQyLjIwNSwzNS4wNTIgQzQyLjMxMiwzNC41NzUgNDIuNzYzLDM0LjI1NSA0My4yMzcsMzQuMjczIEw0NC4xNzIsMzQuMzI2IEw0NC4xNzIsMzEuNjczIFogTTQ1Ljg1OCwyOS44ODggQzQ2LjA1OCwzMC4wNzcgNDYuMTcyLDMwLjM0IDQ2LjE3MiwzMC42MTUgTDQ2LjE3MiwzNS4zODUgQzQ2LjE3MiwzNS42NiA0Ni4wNTgsMzUuOTIzIDQ1Ljg1OCwzNi4xMTIgQzQ1LjY1OSwzNi4zIDQ1LjM4OCwzNi4zOTcgNDUuMTE1LDM2LjM4MyBMNDMuOTM3LDM2LjMxNiBDNDMuNzMsMzYuOTkgNDMuNDYxLDM3LjY0MiA0My4xMywzOC4yNjggTDQ0LjAxLDM5LjA1MyBDNDQuMjE1LDM5LjIzNiA0NC4zMzYsMzkuNDk2IDQ0LjM0NCwzOS43NzEgQzQ0LjM1MSw0MC4wNDUgNDQuMjQ1LDQwLjMxMiA0NC4wNTEsNDAuNTA2IEw0MC42NzgsNDMuODc5IEM0MC40ODMsNDQuMDc0IDQwLjE5NSw0NC4xODIgMzkuOTQyLDQ0LjE3MSBDMzkuNjY3LDQ0LjE2NCAzOS40MDcsNDQuMDQyIDM5LjIyNCw0My44MzcgTDM4LjQ0Myw0Mi45NjEgQzM3LjgxOCw0My4yOTIgMzcuMTY1LDQzLjU2MyAzNi40ODgsNDMuNzcxIEwzNi41NTUsNDQuOTQyIEMzNi41Nyw0NS4yMTcgMzYuNDcyLDQ1LjQ4NiAzNi4yODMsNDUuNjg2IEMzNi4wOTUsNDUuODg2IDM1LjgzMiw0NiAzNS41NTYsNDYgTDMwLjc4Nyw0NiBDMzAuNTEyLDQ2IDMwLjI0OSw0NS44ODYgMzAuMDU5LDQ1LjY4NiBDMjkuODcxLDQ1LjQ4NiAyOS43NzMsNDUuMjE3IDI5Ljc4OSw0NC45NDIgTDI5Ljg1Niw0My43NyBDMjkuMTgxLDQzLjU2MiAyOC41MjgsNDMuMjkxIDI3LjkwMyw0Mi45NTkgTDI3LjExOSw0My44MzcgQzI2LjkzNiw0NC4wNDMgMjYuNjc3LDQ0LjE2NCAyNi40MDEsNDQuMTcxIEMyNi4xMjksNDQuMTc5IDI1Ljg2LDQ0LjA3NCAyNS42NjYsNDMuODc5IEwyMi4yOTMsNDAuNTA2IEMyMi4wOTgsNDAuMzEyIDIxLjk5Miw0MC4wNDUgMjIsMzkuNzcgQzIyLjAwOCwzOS40OTUgMjIuMTI5LDM5LjIzNSAyMi4zMzUsMzkuMDUyIEwyMy4yMTMsMzguMjY5IEMyMi44ODIsMzcuNjQ0IDIyLjYxMSwzNi45OTEgMjIuNDA1LDM2LjMxNiBMMjEuMjI4LDM2LjM4MyBDMjAuOTU5LDM2LjM5OCAyMC42ODQsMzYuMyAyMC40ODUsMzYuMTEyIEMyMC4yODUsMzUuOTIzIDIwLjE3MiwzNS42NiAyMC4xNzIsMzUuMzg1IEwyMC4xNzIsMzAuNjE1IEMyMC4xNzIsMzAuMzQgMjAuMjg1LDMwLjA3NyAyMC40ODUsMjkuODg4IEMyMC42ODQsMjkuNjk5IDIwLjk1OCwyOS42MDQgMjEuMjI4LDI5LjYxNiBMMjIuNDEsMjkuNjg0IEMyMi42MTcsMjkuMDEgMjIuODg4LDI4LjM1OSAyMy4yMTksMjcuNzM2IEwyMi4zMzUsMjYuOTQ4IEMyMi4xMjksMjYuNzY1IDIyLjAwOCwyNi41MDUgMjIsMjYuMjMgQzIxLjk5MiwyNS45NTUgMjIuMDk4LDI1LjY4OSAyMi4yOTMsMjUuNDk1IEwyNS42NjYsMjIuMTIyIEMyNS44NiwyMS45MjcgMjYuMTMxLDIxLjgxNyAyNi40MDEsMjEuODI5IEMyNi42NzcsMjEuODM3IDI2LjkzNSwyMS45NTggMjcuMTE5LDIyLjE2MyBMMjcuOTA4LDIzLjA0NyBDMjguNTMsMjIuNzE3IDI5LjE4MSwyMi40NDcgMjkuODU2LDIyLjI0IEwyOS43ODksMjEuMDU3IEMyOS43NzMsMjAuNzgyIDI5Ljg3MSwyMC41MTMgMzAuMDYsMjAuMzEzIEMzMC4yNDksMjAuMTEzIDMwLjUxMiwyMCAzMC43ODcsMjAgTDM1LjU1NiwyMCBDMzUuODMyLDIwIDM2LjA5NSwyMC4xMTMgMzYuMjgzLDIwLjMxMiBDMzYuNDcyLDIwLjUxMyAzNi41NywyMC43ODIgMzYuNTU1LDIxLjA1NiBMMzYuNDg4LDIyLjI0MiBDMzcuMTYxLDIyLjQ0OSAzNy44MTEsMjIuNzE5IDM4LjQzMywyMy4wNDggTDM5LjIyNCwyMi4xNjMgQzM5LjQwOCwyMS45NTggMzkuNjY3LDIxLjgzNyAzOS45NDIsMjEuODI5IEM0MC4yMiwyMS44MTQgNDAuNDgzLDIxLjkyNyA0MC42NzgsMjIuMTIyIEw0NC4wNTEsMjUuNDk1IEM0NC4yNDUsMjUuNjg5IDQ0LjM1MSwyNS45NTUgNDQuMzQ0LDI2LjIzIEM0NC4zMzYsMjYuNTA1IDQ0LjIxNSwyNi43NjUgNDQuMDEsMjYuOTQ4IEw0My4xMjcsMjcuNzM1IEM0My40NTgsMjguMzU4IDQzLjcyNywyOS4wMSA0My45MzUsMjkuNjg0IEw0NS4xMTUsMjkuNjE2IEM0NS4zODgsMjkuNjA1IDQ1LjY1OSwyOS42OTkgNDUuODU4LDI5Ljg4OCBMNDUuODU4LDI5Ljg4OCBaIE03LDQ0IEwxOSw0NCBMMTksNDYgTDcsNDYgQzQuMjQzLDQ2IDIsNDMuNzU3IDIsNDEgTDIsNyBDMiw0LjI0MyA0LjI0MywyIDcsMiBMNDEsMiBDNDMuNzU3LDIgNDYsNC4yNDMgNDYsNyBMNDYsMjAgTDQ0LDIwIEw0NCw3IEM0NCw1LjM0NiA0Mi42NTQsNCA0MSw0IEw3LDQgQzUuMzQ2LDQgNCw1LjM0NiA0LDcgTDQsNDEgQzQsNDIuNjU0IDUuMzQ2LDQ0IDcsNDQgTDcsNDQgWiIvPiYjeGE7ICAgIDwvZz4mI3hhOzwvc3ZnPg==;fontColor=#FFFFFF;" vertex="1" parent="1">
          <mxGeometry x="876" y="136" width="48" height="48" as="geometry" />
        </mxCell>
        <mxCell id="OJRusn0S9WetoyBH75iF-37" value="" style="shape=image;verticalLabelPosition=bottom;labelBackgroundColor=default;verticalAlign=top;aspect=fixed;imageAspect=0;image=data:image/svg+xml,PHN2ZyB4bWxuczp4bGluaz0iaHR0cDovL3d3dy53My5vcmcvMTk5OS94bGluayIgeG1sbnM9Imh0dHA6Ly93d3cudzMub3JnLzIwMDAvc3ZnIiB2ZXJzaW9uPSIxLjEiIHZpZXdCb3g9IjAgMCA0MCA0MCIgaGVpZ2h0PSI0MHB4IiB3aWR0aD0iNDBweCI+JiN4YTsgICAgPHRpdGxlPkljb24tQXJjaGl0ZWN0dXJlLUdyb3VwLzMyL0VDMi1pbnN0YW5jZS1jb250ZW50c18zMjwvdGl0bGU+JiN4YTsgICAgPGcgZmlsbC1ydWxlPSJldmVub2RkIiBmaWxsPSJub25lIiBzdHJva2Utd2lkdGg9IjEiIHN0cm9rZT0ibm9uZSIgaWQ9Ikljb24tQXJjaGl0ZWN0dXJlLUdyb3VwLzMyL0VDMi1pbnN0YW5jZS1jb250ZW50c18zMiI+JiN4YTsgICAgICAgIDxyZWN0IGhlaWdodD0iNDAiIHdpZHRoPSI0MCIgeT0iMCIgeD0iMCIgZmlsbD0iI0VENzEwMCIgaWQ9IlJlY3RhbmdsZSIvPiYjeGE7ICAgICAgICA8cGF0aCBmaWxsPSIjRkZGRkZGIiBpZD0iRmlsbC0xIiBkPSJNMTAsMjkgTDI5LDI5IEwyOSwxMCBMMTAsMTAgTDEwLDI5IFogTTMzLDEyIEwzMywxMSBMMzAsMTEgTDMwLDkuNSBDMzAsOS4yMjQgMjkuNzc2LDkgMjkuNSw5IEwyOCw5IEwyOCw2IEwyNyw2IEwyNyw5IEwyNCw5IEwyNCw2IEwyMyw2IEwyMyw5IEwyMCw5IEwyMCw2IEwxOSw2IEwxOSw5IEwxNiw5IEwxNiw2IEwxNSw2IEwxNSw5IEwxMiw5IEwxMiw2IEwxMSw2IEwxMSw5IEw5LjUsOSBDOS4yMjQsOSA5LDkuMjI0IDksOS41IEw5LDExIEw2LDExIEw2LDEyIEw5LDEyIEw5LDE1IEw2LDE1IEw2LDE2IEw5LDE2IEw5LDE5IEw2LDE5IEw2LDIwIEw5LDIwIEw5LDIzIEw2LDIzIEw2LDI0IEw5LDI0IEw5LDI3IEw2LDI3IEw2LDI4IEw5LDI4IEw5LDI5LjUgQzksMjkuNzc2IDkuMjI0LDMwIDkuNSwzMCBMMTEsMzAgTDExLDMzIEwxMiwzMyBMMTIsMzAgTDE1LDMwIEwxNSwzMyBMMTYsMzMgTDE2LDMwIEwxOSwzMCBMMTksMzMgTDIwLDMzIEwyMCwzMCBMMjMsMzAgTDIzLDMzIEwyNCwzMyBMMjQsMzAgTDI3LDMwIEwyNywzMyBMMjgsMzMgTDI4LDMwIEwyOS41LDMwIEMyOS43NzYsMzAgMzAsMjkuNzc2IDMwLDI5LjUgTDMwLDI4IEwzMywyOCBMMzMsMjcgTDMwLDI3IEwzMCwyNCBMMzMsMjQgTDMzLDIzIEwzMCwyMyBMMzAsMjAgTDMzLDIwIEwzMywxOSBMMzAsMTkgTDMwLDE2IEwzMywxNiBMMzMsMTUgTDMwLDE1IEwzMCwxMiBMMzMsMTIgWiIvPiYjeGE7ICAgIDwvZz4mI3hhOzwvc3ZnPg==;" vertex="1" parent="1">
          <mxGeometry x="120" y="80" width="40" height="40" as="geometry" />
        </mxCell>
        <mxCell id="OJRusn0S9WetoyBH75iF-38" value="" style="rounded=0;whiteSpace=wrap;html=1;fillColor=none;strokeColor=#FD9831;" vertex="1" parent="1">
          <mxGeometry x="120" y="80" width="280" height="160" as="geometry" />
        </mxCell>
        <mxCell id="OJRusn0S9WetoyBH75iF-39" value="&lt;font color=&quot;#ffffff&quot;&gt;Worker Node&lt;/font&gt;" style="text;html=1;align=left;verticalAlign=middle;whiteSpace=wrap;rounded=0;spacingLeft=10;" vertex="1" parent="1">
          <mxGeometry x="160" y="80" width="120" height="40" as="geometry" />
        </mxCell>
        <mxCell id="OJRusn0S9WetoyBH75iF-41" style="edgeStyle=orthogonalEdgeStyle;rounded=0;orthogonalLoop=1;jettySize=auto;html=1;exitX=1;exitY=0.5;exitDx=0;exitDy=0;entryX=0;entryY=0.5;entryDx=0;entryDy=0;flowAnimation=1;strokeColor=#9D71F9;" edge="1" parent="1" source="OJRusn0S9WetoyBH75iF-40" target="OJRusn0S9WetoyBH75iF-28">
          <mxGeometry relative="1" as="geometry" />
        </mxCell>
        <mxCell id="OJRusn0S9WetoyBH75iF-40" value="OpenSearch Dashboards" style="shape=image;verticalLabelPosition=bottom;labelBackgroundColor=none;verticalAlign=top;aspect=fixed;imageAspect=0;image=data:image/svg+xml,PHN2ZyB4bWxuczp4bGluaz0iaHR0cDovL3d3dy53My5vcmcvMTk5OS94bGluayIgeG1sbnM9Imh0dHA6Ly93d3cudzMub3JnLzIwMDAvc3ZnIiB2ZXJzaW9uPSIxLjEiIHZpZXdCb3g9IjAgMCA0OCA0OCIgaGVpZ2h0PSI0OHB4IiB3aWR0aD0iNDhweCI+JiN4YTsgICAgPHRpdGxlPkljb24tUmVzb3VyY2UvQW5hbHl0aWNzL1Jlc19BbWF6b24tT3BlblNlYXJjaC1TZXJ2aWNlX09wZW5TZWFyY2gtRGFzaGJvYXJkc180ODwvdGl0bGU+JiN4YTsgICAgPGcgZmlsbC1ydWxlPSJldmVub2RkIiBmaWxsPSJub25lIiBzdHJva2Utd2lkdGg9IjEiIHN0cm9rZT0ibm9uZSIgaWQ9Ikljb24tUmVzb3VyY2UvQW5hbHl0aWNzL1Jlc19BbWF6b24tT3BlblNlYXJjaC1TZXJ2aWNlX09wZW5TZWFyY2gtRGFzaGJvYXJkc180OCI+JiN4YTsgICAgICAgIDxwYXRoIGZpbGw9IiM4QzRGRkYiIGlkPSJGaWxsLTEiIGQ9Ik0yNy41NCwyOCBMMjkuMTg2LDI4IEwzMC45ODUsMzAuNDM2IEMzMS4yMTMsMzAuNzQ0IDMxLjU5OSwzMC44OTggMzEuOTczLDMwLjgyNSBDMzIuMzUsMzAuNzU1IDMyLjY1MywzMC40NzYgMzIuNzU0LDMwLjEwNiBMMzQuMjQzLDI0LjY4NyBMMzYuODM3LDM0IEwyNC45NjEsMzQgTDI3LjU0LDI4IFogTTM1LjE5OSwyMC42NjcgQzM1LjA3OSwyMC4yMzQgMzQuNjg2LDE5LjkzNSAzNC4yMzYsMTkuOTM1IEwzNC4yMzQsMTkuOTM1IEMzMy43ODUsMTkuOTM2IDMzLjM5MSwyMC4yMzYgMzMuMjcyLDIwLjY3IEwzMS4zNzEsMjcuNTkxIEwzMC40OTYsMjYuNDA2IEMzMC4zMDgsMjYuMTUxIDMwLjAwOSwyNiAyOS42OTEsMjYgTDI2Ljg4MiwyNiBDMjYuNDgyLDI2IDI2LjEyMSwyNi4yMzggMjUuOTYzLDI2LjYwNSBMMjIuNzg0LDM0IEwyMS4wMjMsMzQgTDIxLjAyMywzNiBMNDEuMDIzLDM2IEw0MS4wMjMsMzQgTDM4LjkxMiwzNCBMMzUuMTk5LDIwLjY2NyBaIE0xMS4wMjMsMzYgTDEzLjAyMywzNiBMMTMuMDIzLDIzIEwxMS4wMjMsMjMgTDExLjAyMywzNiBaIE0xNS4wMjMsMzYgTDE3LjAyMywzNiBMMTcuMDIzLDIxIEwxNS4wMjMsMjEgTDE1LjAyMywzNiBaIE03LjAyMywzNiBMOS4wMjMsMzYgTDkuMDIzLDI4IEw3LjAyMywyOCBMNy4wMjMsMzYgWiBNMTQuMDIzLDE0IEwxNi4wMjMsMTQgTDE2LjAyMywxMiBMMTQuMDIzLDEyIEwxNC4wMjMsMTQgWiBNMTAuMDIzLDE0IEwxMi4wMjMsMTQgTDEyLjAyMywxMiBMMTAuMDIzLDEyIEwxMC4wMjMsMTQgWiBNNi4wMjMsMTQgTDguMDIzLDE0IEw4LjAyMywxMiBMNi4wMjMsMTIgTDYuMDIzLDE0IFogTTQsMzkgTDQuMDE4LDE3IEw0NC4wMjMsMTcgTDQ0LjAyMywzOC45OTQgTDQsMzkgWiBNNDQuMDIzLDEwIEw0NC4wMjMsMTUgTDQuMDE5LDE1IEw0LjAyMywxMCBMNDQuMDIzLDEwIFogTTQ0LjE0Niw4IEwzLjksOCBDMi44NjUsOCAyLjAyMyw4Ljg0MiAyLjAyMyw5Ljg3NSBMMS45OTk5OTY0MiwzOS4xMjggQzEuOTk4LDQwLjE1NCAyLjgzNCw0MC45OTQgMy44Nyw0MSBMNDQuMTQ2LDQwLjk5NCBDNDUuMTgyLDQwLjk5NCA0Ni4wMjMsNDAuMTUyIDQ2LjAyMywzOS4xMTcgTDQ2LjAyMyw5Ljg3NyBDNDYuMDIzLDguODQyIDQ1LjE4Miw4IDQ0LjE0Niw4IEw0NC4xNDYsOCBaIi8+JiN4YTsgICAgPC9nPiYjeGE7PC9zdmc+;fontColor=#FFFFFF;" vertex="1" parent="1">
          <mxGeometry x="236" y="136" width="48" height="48" as="geometry" />
        </mxCell>
        <mxCell id="OJRusn0S9WetoyBH75iF-43" value="" style="shape=image;verticalLabelPosition=bottom;labelBackgroundColor=default;verticalAlign=top;aspect=fixed;imageAspect=0;image=data:image/svg+xml,PHN2ZyB4bWxuczp4bGluaz0iaHR0cDovL3d3dy53My5vcmcvMTk5OS94bGluayIgeG1sbnM9Imh0dHA6Ly93d3cudzMub3JnLzIwMDAvc3ZnIiB2ZXJzaW9uPSIxLjEiIHZpZXdCb3g9IjAgMCA0MCA0MCIgaGVpZ2h0PSI0MHB4IiB3aWR0aD0iNDBweCI+JiN4YTsgICAgPHRpdGxlPkljb24tQXJjaGl0ZWN0dXJlLUdyb3VwLzMyL0VDMi1pbnN0YW5jZS1jb250ZW50c18zMjwvdGl0bGU+JiN4YTsgICAgPGcgZmlsbC1ydWxlPSJldmVub2RkIiBmaWxsPSJub25lIiBzdHJva2Utd2lkdGg9IjEiIHN0cm9rZT0ibm9uZSIgaWQ9Ikljb24tQXJjaGl0ZWN0dXJlLUdyb3VwLzMyL0VDMi1pbnN0YW5jZS1jb250ZW50c18zMiI+JiN4YTsgICAgICAgIDxyZWN0IGhlaWdodD0iNDAiIHdpZHRoPSI0MCIgeT0iMCIgeD0iMCIgZmlsbD0iI0VENzEwMCIgaWQ9IlJlY3RhbmdsZSIvPiYjeGE7ICAgICAgICA8cGF0aCBmaWxsPSIjRkZGRkZGIiBpZD0iRmlsbC0xIiBkPSJNMTAsMjkgTDI5LDI5IEwyOSwxMCBMMTAsMTAgTDEwLDI5IFogTTMzLDEyIEwzMywxMSBMMzAsMTEgTDMwLDkuNSBDMzAsOS4yMjQgMjkuNzc2LDkgMjkuNSw5IEwyOCw5IEwyOCw2IEwyNyw2IEwyNyw5IEwyNCw5IEwyNCw2IEwyMyw2IEwyMyw5IEwyMCw5IEwyMCw2IEwxOSw2IEwxOSw5IEwxNiw5IEwxNiw2IEwxNSw2IEwxNSw5IEwxMiw5IEwxMiw2IEwxMSw2IEwxMSw5IEw5LjUsOSBDOS4yMjQsOSA5LDkuMjI0IDksOS41IEw5LDExIEw2LDExIEw2LDEyIEw5LDEyIEw5LDE1IEw2LDE1IEw2LDE2IEw5LDE2IEw5LDE5IEw2LDE5IEw2LDIwIEw5LDIwIEw5LDIzIEw2LDIzIEw2LDI0IEw5LDI0IEw5LDI3IEw2LDI3IEw2LDI4IEw5LDI4IEw5LDI5LjUgQzksMjkuNzc2IDkuMjI0LDMwIDkuNSwzMCBMMTEsMzAgTDExLDMzIEwxMiwzMyBMMTIsMzAgTDE1LDMwIEwxNSwzMyBMMTYsMzMgTDE2LDMwIEwxOSwzMCBMMTksMzMgTDIwLDMzIEwyMCwzMCBMMjMsMzAgTDIzLDMzIEwyNCwzMyBMMjQsMzAgTDI3LDMwIEwyNywzMyBMMjgsMzMgTDI4LDMwIEwyOS41LDMwIEMyOS43NzYsMzAgMzAsMjkuNzc2IDMwLDI5LjUgTDMwLDI4IEwzMywyOCBMMzMsMjcgTDMwLDI3IEwzMCwyNCBMMzMsMjQgTDMzLDIzIEwzMCwyMyBMMzAsMjAgTDMzLDIwIEwzMywxOSBMMzAsMTkgTDMwLDE2IEwzMywxNiBMMzMsMTUgTDMwLDE1IEwzMCwxMiBMMzMsMTIgWiIvPiYjeGE7ICAgIDwvZz4mI3hhOzwvc3ZnPg==;" vertex="1" parent="1">
          <mxGeometry x="440" y="280" width="40" height="40" as="geometry" />
        </mxCell>
        <mxCell id="OJRusn0S9WetoyBH75iF-44" value="" style="rounded=0;whiteSpace=wrap;html=1;fillColor=none;strokeColor=#FD9831;" vertex="1" parent="1">
          <mxGeometry x="440" y="280" width="280" height="160" as="geometry" />
        </mxCell>
        <mxCell id="OJRusn0S9WetoyBH75iF-45" value="&lt;font color=&quot;#ffffff&quot;&gt;Worker Node&lt;/font&gt;" style="text;html=1;align=left;verticalAlign=middle;whiteSpace=wrap;rounded=0;spacingLeft=10;" vertex="1" parent="1">
          <mxGeometry x="480" y="280" width="120" height="40" as="geometry" />
        </mxCell>
        <mxCell id="OJRusn0S9WetoyBH75iF-55" value="OpenSearch&#xa;Data Node" style="shape=image;verticalLabelPosition=bottom;labelBackgroundColor=none;verticalAlign=top;aspect=fixed;imageAspect=0;image=data:image/svg+xml,PHN2ZyB4bWxuczp4bGluaz0iaHR0cDovL3d3dy53My5vcmcvMTk5OS94bGluayIgeG1sbnM9Imh0dHA6Ly93d3cudzMub3JnLzIwMDAvc3ZnIiB2ZXJzaW9uPSIxLjEiIHZpZXdCb3g9IjAgMCA0OCA0OCIgaGVpZ2h0PSI0OHB4IiB3aWR0aD0iNDhweCI+JiN4YTsgICAgPHRpdGxlPkljb24tUmVzb3VyY2UvQW5hbHl0aWNzL1Jlc19BbWF6b24tT3BlblNlYXJjaC1TZXJ2aWNlX0RhdGEtTm9kZV80ODwvdGl0bGU+JiN4YTsgICAgPGcgZmlsbC1ydWxlPSJldmVub2RkIiBmaWxsPSJub25lIiBzdHJva2Utd2lkdGg9IjEiIHN0cm9rZT0ibm9uZSIgaWQ9Ikljb24tUmVzb3VyY2UvQW5hbHl0aWNzL1Jlc19BbWF6b24tT3BlblNlYXJjaC1TZXJ2aWNlX0RhdGEtTm9kZV80OCI+JiN4YTsgICAgICAgIDxwYXRoIGZpbGw9IiM4QzRGRkYiIGlkPSJGaWxsLTEiIGQ9Ik00My45MTEsNDIuNTEyNyBDNDMuOTQ0LDQyLjI2NTcgNDMuODQ5LDQyLjEzNzcgNDMuNzc0LDQyLjA2MjcgTDM4LjIxMiwzNi42NDk3IEMzNy44MDgsMzcuMTY4NyAzNy4zNTgsMzcuNjQ2NyAzNi44NjgsMzguMDg0NyBMNDIuMjU2LDQzLjU5ODcgQzQyLjU5Myw0My45MzI3IDQzLjE2Nyw0My42MDU3IDQzLjQ3Myw0My4zMDA3IEM0My43MTgsNDMuMDU1NyA0My44NzcsNDIuNzY4NyA0My45MTEsNDIuNTEyNyBMNDMuOTExLDQyLjUxMjcgWiBNMjkuNTkxLDM4Ljg3OTcgQzM0LjUyLDM4Ljg3OTcgMzguNTMsMzQuODY5NyAzOC41MywyOS45Mzk3IEMzOC41MywyNS4wMTA3IDM0LjUyLDIwLjk5OTcgMjkuNTkxLDIwLjk5OTcgQzI0LjY2MSwyMC45OTk3IDIwLjY1MSwyNS4wMTA3IDIwLjY1MSwyOS45Mzk3IEMyMC42NTEsMzQuODY5NyAyNC42NjEsMzguODc5NyAyOS41OTEsMzguODc5NyBMMjkuNTkxLDM4Ljg3OTcgWiBNNDUuMTc5LDQwLjYzODcgQzQ1Ljc1MSw0MS4yMTE3IDQ2LjAwMiw0MS45Njc3IDQ1Ljg5Myw0Mi43NzY3IEM0NS44MDIsNDMuNDcwNyA0NS40NDMsNDQuMTU4NyA0NC44ODcsNDQuNzE1NyBDNDQuMjEzLDQ1LjM4ODcgNDMuMzg5LDQ1LjczMzcgNDIuNjA0LDQ1LjczMzcgQzQxLjk1LDQ1LjczMzcgNDEuMzIzLDQ1LjQ5MjcgNDAuODM0LDQ1LjAwNTcgTDM1LjI0NywzOS4yODY3IEMzMy41OTQsNDAuMjkwNyAzMS42NjIsNDAuODc5NyAyOS41OTEsNDAuODc5NyBDMjMuNTU4LDQwLjg3OTcgMTguNjUxLDM1Ljk3MTcgMTguNjUxLDI5LjkzOTcgQzE4LjY1MSwyMy45MDc3IDIzLjU1OCwxOC45OTk3IDI5LjU5MSwxOC45OTk3IEMzNS42MjMsMTguOTk5NyA0MC41MywyMy45MDc3IDQwLjUzLDI5LjkzOTcgQzQwLjUzLDMxLjczODcgNDAuMDg2LDMzLjQzMjcgMzkuMzE0LDM0LjkzMDcgTDQ1LjE3OSw0MC42Mzg3IFogTTQ2LDYuOTk5NyBMNDYsMjguOTk5NyBMNDQsMjguOTk5NyBMNDQsNi45OTk3IEM0NCw1LjM0NTcgNDIuNjU0LDMuOTk5NyA0MSwzLjk5OTcgTDcsMy45OTk3IEM1LjM0NiwzLjk5OTcgNCw1LjM0NTcgNCw2Ljk5OTcgTDQsNDAuOTk5NyBDNCw0Mi42NTQ3IDUuMzQ2LDQzLjk5OTcgNyw0My45OTk3IEwyOSw0My45OTk3IEwyOSw0NS45OTk3IEw3LDQ1Ljk5OTcgQzQuMjQzLDQ1Ljk5OTcgMiw0My43NTY3IDIsNDAuOTk5NyBMMiw2Ljk5OTcgQzIsNC4yNDI3IDQuMjQzLDEuOTk5NyA3LDEuOTk5NyBMNDEsMS45OTk3IEM0My43NTcsMS45OTk3IDQ2LDQuMjQyNyA0Niw2Ljk5OTcgTDQ2LDYuOTk5NyBaIi8+JiN4YTsgICAgPC9nPiYjeGE7PC9zdmc+;fontColor=#FFFFFF;" vertex="1" parent="1">
          <mxGeometry x="551" y="336" width="48" height="48" as="geometry" />
        </mxCell>
        <mxCell id="OJRusn0S9WetoyBH75iF-56" value="" style="shape=image;verticalLabelPosition=bottom;labelBackgroundColor=default;verticalAlign=top;aspect=fixed;imageAspect=0;image=data:image/svg+xml,PHN2ZyB4bWxuczp4bGluaz0iaHR0cDovL3d3dy53My5vcmcvMTk5OS94bGluayIgeG1sbnM9Imh0dHA6Ly93d3cudzMub3JnLzIwMDAvc3ZnIiB2ZXJzaW9uPSIxLjEiIHZpZXdCb3g9IjAgMCA0MCA0MCIgaGVpZ2h0PSI0MHB4IiB3aWR0aD0iNDBweCI+JiN4YTsgICAgPHRpdGxlPkljb24tQXJjaGl0ZWN0dXJlLUdyb3VwLzMyL0VDMi1pbnN0YW5jZS1jb250ZW50c18zMjwvdGl0bGU+JiN4YTsgICAgPGcgZmlsbC1ydWxlPSJldmVub2RkIiBmaWxsPSJub25lIiBzdHJva2Utd2lkdGg9IjEiIHN0cm9rZT0ibm9uZSIgaWQ9Ikljb24tQXJjaGl0ZWN0dXJlLUdyb3VwLzMyL0VDMi1pbnN0YW5jZS1jb250ZW50c18zMiI+JiN4YTsgICAgICAgIDxyZWN0IGhlaWdodD0iNDAiIHdpZHRoPSI0MCIgeT0iMCIgeD0iMCIgZmlsbD0iI0VENzEwMCIgaWQ9IlJlY3RhbmdsZSIvPiYjeGE7ICAgICAgICA8cGF0aCBmaWxsPSIjRkZGRkZGIiBpZD0iRmlsbC0xIiBkPSJNMTAsMjkgTDI5LDI5IEwyOSwxMCBMMTAsMTAgTDEwLDI5IFogTTMzLDEyIEwzMywxMSBMMzAsMTEgTDMwLDkuNSBDMzAsOS4yMjQgMjkuNzc2LDkgMjkuNSw5IEwyOCw5IEwyOCw2IEwyNyw2IEwyNyw5IEwyNCw5IEwyNCw2IEwyMyw2IEwyMyw5IEwyMCw5IEwyMCw2IEwxOSw2IEwxOSw5IEwxNiw5IEwxNiw2IEwxNSw2IEwxNSw5IEwxMiw5IEwxMiw2IEwxMSw2IEwxMSw5IEw5LjUsOSBDOS4yMjQsOSA5LDkuMjI0IDksOS41IEw5LDExIEw2LDExIEw2LDEyIEw5LDEyIEw5LDE1IEw2LDE1IEw2LDE2IEw5LDE2IEw5LDE5IEw2LDE5IEw2LDIwIEw5LDIwIEw5LDIzIEw2LDIzIEw2LDI0IEw5LDI0IEw5LDI3IEw2LDI3IEw2LDI4IEw5LDI4IEw5LDI5LjUgQzksMjkuNzc2IDkuMjI0LDMwIDkuNSwzMCBMMTEsMzAgTDExLDMzIEwxMiwzMyBMMTIsMzAgTDE1LDMwIEwxNSwzMyBMMTYsMzMgTDE2LDMwIEwxOSwzMCBMMTksMzMgTDIwLDMzIEwyMCwzMCBMMjMsMzAgTDIzLDMzIEwyNCwzMyBMMjQsMzAgTDI3LDMwIEwyNywzMyBMMjgsMzMgTDI4LDMwIEwyOS41LDMwIEMyOS43NzYsMzAgMzAsMjkuNzc2IDMwLDI5LjUgTDMwLDI4IEwzMywyOCBMMzMsMjcgTDMwLDI3IEwzMCwyNCBMMzMsMjQgTDMzLDIzIEwzMCwyMyBMMzAsMjAgTDMzLDIwIEwzMywxOSBMMzAsMTkgTDMwLDE2IEwzMywxNiBMMzMsMTUgTDMwLDE1IEwzMCwxMiBMMzMsMTIgWiIvPiYjeGE7ICAgIDwvZz4mI3hhOzwvc3ZnPg==;" vertex="1" parent="1">
          <mxGeometry x="760" y="280" width="40" height="40" as="geometry" />
        </mxCell>
        <mxCell id="OJRusn0S9WetoyBH75iF-57" value="" style="rounded=0;whiteSpace=wrap;html=1;fillColor=none;strokeColor=#FD9831;" vertex="1" parent="1">
          <mxGeometry x="760" y="280" width="280" height="160" as="geometry" />
        </mxCell>
        <mxCell id="OJRusn0S9WetoyBH75iF-58" value="&lt;font color=&quot;#ffffff&quot;&gt;Worker Node&lt;/font&gt;" style="text;html=1;align=left;verticalAlign=middle;whiteSpace=wrap;rounded=0;spacingLeft=10;" vertex="1" parent="1">
          <mxGeometry x="800" y="280" width="120" height="40" as="geometry" />
        </mxCell>
        <mxCell id="OJRusn0S9WetoyBH75iF-59" value="OpenSearch&#xa;Data Node" style="shape=image;verticalLabelPosition=bottom;labelBackgroundColor=none;verticalAlign=top;aspect=fixed;imageAspect=0;image=data:image/svg+xml,PHN2ZyB4bWxuczp4bGluaz0iaHR0cDovL3d3dy53My5vcmcvMTk5OS94bGluayIgeG1sbnM9Imh0dHA6Ly93d3cudzMub3JnLzIwMDAvc3ZnIiB2ZXJzaW9uPSIxLjEiIHZpZXdCb3g9IjAgMCA0OCA0OCIgaGVpZ2h0PSI0OHB4IiB3aWR0aD0iNDhweCI+JiN4YTsgICAgPHRpdGxlPkljb24tUmVzb3VyY2UvQW5hbHl0aWNzL1Jlc19BbWF6b24tT3BlblNlYXJjaC1TZXJ2aWNlX0RhdGEtTm9kZV80ODwvdGl0bGU+JiN4YTsgICAgPGcgZmlsbC1ydWxlPSJldmVub2RkIiBmaWxsPSJub25lIiBzdHJva2Utd2lkdGg9IjEiIHN0cm9rZT0ibm9uZSIgaWQ9Ikljb24tUmVzb3VyY2UvQW5hbHl0aWNzL1Jlc19BbWF6b24tT3BlblNlYXJjaC1TZXJ2aWNlX0RhdGEtTm9kZV80OCI+JiN4YTsgICAgICAgIDxwYXRoIGZpbGw9IiM4QzRGRkYiIGlkPSJGaWxsLTEiIGQ9Ik00My45MTEsNDIuNTEyNyBDNDMuOTQ0LDQyLjI2NTcgNDMuODQ5LDQyLjEzNzcgNDMuNzc0LDQyLjA2MjcgTDM4LjIxMiwzNi42NDk3IEMzNy44MDgsMzcuMTY4NyAzNy4zNTgsMzcuNjQ2NyAzNi44NjgsMzguMDg0NyBMNDIuMjU2LDQzLjU5ODcgQzQyLjU5Myw0My45MzI3IDQzLjE2Nyw0My42MDU3IDQzLjQ3Myw0My4zMDA3IEM0My43MTgsNDMuMDU1NyA0My44NzcsNDIuNzY4NyA0My45MTEsNDIuNTEyNyBMNDMuOTExLDQyLjUxMjcgWiBNMjkuNTkxLDM4Ljg3OTcgQzM0LjUyLDM4Ljg3OTcgMzguNTMsMzQuODY5NyAzOC41MywyOS45Mzk3IEMzOC41MywyNS4wMTA3IDM0LjUyLDIwLjk5OTcgMjkuNTkxLDIwLjk5OTcgQzI0LjY2MSwyMC45OTk3IDIwLjY1MSwyNS4wMTA3IDIwLjY1MSwyOS45Mzk3IEMyMC42NTEsMzQuODY5NyAyNC42NjEsMzguODc5NyAyOS41OTEsMzguODc5NyBMMjkuNTkxLDM4Ljg3OTcgWiBNNDUuMTc5LDQwLjYzODcgQzQ1Ljc1MSw0MS4yMTE3IDQ2LjAwMiw0MS45Njc3IDQ1Ljg5Myw0Mi43NzY3IEM0NS44MDIsNDMuNDcwNyA0NS40NDMsNDQuMTU4NyA0NC44ODcsNDQuNzE1NyBDNDQuMjEzLDQ1LjM4ODcgNDMuMzg5LDQ1LjczMzcgNDIuNjA0LDQ1LjczMzcgQzQxLjk1LDQ1LjczMzcgNDEuMzIzLDQ1LjQ5MjcgNDAuODM0LDQ1LjAwNTcgTDM1LjI0NywzOS4yODY3IEMzMy41OTQsNDAuMjkwNyAzMS42NjIsNDAuODc5NyAyOS41OTEsNDAuODc5NyBDMjMuNTU4LDQwLjg3OTcgMTguNjUxLDM1Ljk3MTcgMTguNjUxLDI5LjkzOTcgQzE4LjY1MSwyMy45MDc3IDIzLjU1OCwxOC45OTk3IDI5LjU5MSwxOC45OTk3IEMzNS42MjMsMTguOTk5NyA0MC41MywyMy45MDc3IDQwLjUzLDI5LjkzOTcgQzQwLjUzLDMxLjczODcgNDAuMDg2LDMzLjQzMjcgMzkuMzE0LDM0LjkzMDcgTDQ1LjE3OSw0MC42Mzg3IFogTTQ2LDYuOTk5NyBMNDYsMjguOTk5NyBMNDQsMjguOTk5NyBMNDQsNi45OTk3IEM0NCw1LjM0NTcgNDIuNjU0LDMuOTk5NyA0MSwzLjk5OTcgTDcsMy45OTk3IEM1LjM0NiwzLjk5OTcgNCw1LjM0NTcgNCw2Ljk5OTcgTDQsNDAuOTk5NyBDNCw0Mi42NTQ3IDUuMzQ2LDQzLjk5OTcgNyw0My45OTk3IEwyOSw0My45OTk3IEwyOSw0NS45OTk3IEw3LDQ1Ljk5OTcgQzQuMjQzLDQ1Ljk5OTcgMiw0My43NTY3IDIsNDAuOTk5NyBMMiw2Ljk5OTcgQzIsNC4yNDI3IDQuMjQzLDEuOTk5NyA3LDEuOTk5NyBMNDEsMS45OTk3IEM0My43NTcsMS45OTk3IDQ2LDQuMjQyNyA0Niw2Ljk5OTcgTDQ2LDYuOTk5NyBaIi8+JiN4YTsgICAgPC9nPiYjeGE7PC9zdmc+;fontColor=#FFFFFF;" vertex="1" parent="1">
          <mxGeometry x="876" y="336" width="48" height="48" as="geometry" />
        </mxCell>
        <mxCell id="OJRusn0S9WetoyBH75iF-60" value="" style="shape=image;verticalLabelPosition=bottom;labelBackgroundColor=default;verticalAlign=top;aspect=fixed;imageAspect=0;image=data:image/svg+xml,PHN2ZyB4bWxuczp4bGluaz0iaHR0cDovL3d3dy53My5vcmcvMTk5OS94bGluayIgeG1sbnM9Imh0dHA6Ly93d3cudzMub3JnLzIwMDAvc3ZnIiB2ZXJzaW9uPSIxLjEiIHZpZXdCb3g9IjAgMCA0MCA0MCIgaGVpZ2h0PSI0MHB4IiB3aWR0aD0iNDBweCI+JiN4YTsgICAgPHRpdGxlPkljb24tQXJjaGl0ZWN0dXJlLUdyb3VwLzMyL0VDMi1pbnN0YW5jZS1jb250ZW50c18zMjwvdGl0bGU+JiN4YTsgICAgPGcgZmlsbC1ydWxlPSJldmVub2RkIiBmaWxsPSJub25lIiBzdHJva2Utd2lkdGg9IjEiIHN0cm9rZT0ibm9uZSIgaWQ9Ikljb24tQXJjaGl0ZWN0dXJlLUdyb3VwLzMyL0VDMi1pbnN0YW5jZS1jb250ZW50c18zMiI+JiN4YTsgICAgICAgIDxyZWN0IGhlaWdodD0iNDAiIHdpZHRoPSI0MCIgeT0iMCIgeD0iMCIgZmlsbD0iI0VENzEwMCIgaWQ9IlJlY3RhbmdsZSIvPiYjeGE7ICAgICAgICA8cGF0aCBmaWxsPSIjRkZGRkZGIiBpZD0iRmlsbC0xIiBkPSJNMTAsMjkgTDI5LDI5IEwyOSwxMCBMMTAsMTAgTDEwLDI5IFogTTMzLDEyIEwzMywxMSBMMzAsMTEgTDMwLDkuNSBDMzAsOS4yMjQgMjkuNzc2LDkgMjkuNSw5IEwyOCw5IEwyOCw2IEwyNyw2IEwyNyw5IEwyNCw5IEwyNCw2IEwyMyw2IEwyMyw5IEwyMCw5IEwyMCw2IEwxOSw2IEwxOSw5IEwxNiw5IEwxNiw2IEwxNSw2IEwxNSw5IEwxMiw5IEwxMiw2IEwxMSw2IEwxMSw5IEw5LjUsOSBDOS4yMjQsOSA5LDkuMjI0IDksOS41IEw5LDExIEw2LDExIEw2LDEyIEw5LDEyIEw5LDE1IEw2LDE1IEw2LDE2IEw5LDE2IEw5LDE5IEw2LDE5IEw2LDIwIEw5LDIwIEw5LDIzIEw2LDIzIEw2LDI0IEw5LDI0IEw5LDI3IEw2LDI3IEw2LDI4IEw5LDI4IEw5LDI5LjUgQzksMjkuNzc2IDkuMjI0LDMwIDkuNSwzMCBMMTEsMzAgTDExLDMzIEwxMiwzMyBMMTIsMzAgTDE1LDMwIEwxNSwzMyBMMTYsMzMgTDE2LDMwIEwxOSwzMCBMMTksMzMgTDIwLDMzIEwyMCwzMCBMMjMsMzAgTDIzLDMzIEwyNCwzMyBMMjQsMzAgTDI3LDMwIEwyNywzMyBMMjgsMzMgTDI4LDMwIEwyOS41LDMwIEMyOS43NzYsMzAgMzAsMjkuNzc2IDMwLDI5LjUgTDMwLDI4IEwzMywyOCBMMzMsMjcgTDMwLDI3IEwzMCwyNCBMMzMsMjQgTDMzLDIzIEwzMCwyMyBMMzAsMjAgTDMzLDIwIEwzMywxOSBMMzAsMTkgTDMwLDE2IEwzMywxNiBMMzMsMTUgTDMwLDE1IEwzMCwxMiBMMzMsMTIgWiIvPiYjeGE7ICAgIDwvZz4mI3hhOzwvc3ZnPg==;" vertex="1" parent="1">
          <mxGeometry x="1080" y="280" width="40" height="40" as="geometry" />
        </mxCell>
        <mxCell id="OJRusn0S9WetoyBH75iF-61" value="" style="rounded=0;whiteSpace=wrap;html=1;fillColor=none;strokeColor=#FD9831;" vertex="1" parent="1">
          <mxGeometry x="1080" y="280" width="280" height="160" as="geometry" />
        </mxCell>
        <mxCell id="OJRusn0S9WetoyBH75iF-62" value="&lt;font color=&quot;#ffffff&quot;&gt;Worker Node&lt;/font&gt;" style="text;html=1;align=left;verticalAlign=middle;whiteSpace=wrap;rounded=0;spacingLeft=10;" vertex="1" parent="1">
          <mxGeometry x="1120" y="280" width="120" height="40" as="geometry" />
        </mxCell>
        <mxCell id="OJRusn0S9WetoyBH75iF-63" value="OpenSearch&#xa;Data Node" style="shape=image;verticalLabelPosition=bottom;labelBackgroundColor=none;verticalAlign=top;aspect=fixed;imageAspect=0;image=data:image/svg+xml,PHN2ZyB4bWxuczp4bGluaz0iaHR0cDovL3d3dy53My5vcmcvMTk5OS94bGluayIgeG1sbnM9Imh0dHA6Ly93d3cudzMub3JnLzIwMDAvc3ZnIiB2ZXJzaW9uPSIxLjEiIHZpZXdCb3g9IjAgMCA0OCA0OCIgaGVpZ2h0PSI0OHB4IiB3aWR0aD0iNDhweCI+JiN4YTsgICAgPHRpdGxlPkljb24tUmVzb3VyY2UvQW5hbHl0aWNzL1Jlc19BbWF6b24tT3BlblNlYXJjaC1TZXJ2aWNlX0RhdGEtTm9kZV80ODwvdGl0bGU+JiN4YTsgICAgPGcgZmlsbC1ydWxlPSJldmVub2RkIiBmaWxsPSJub25lIiBzdHJva2Utd2lkdGg9IjEiIHN0cm9rZT0ibm9uZSIgaWQ9Ikljb24tUmVzb3VyY2UvQW5hbHl0aWNzL1Jlc19BbWF6b24tT3BlblNlYXJjaC1TZXJ2aWNlX0RhdGEtTm9kZV80OCI+JiN4YTsgICAgICAgIDxwYXRoIGZpbGw9IiM4QzRGRkYiIGlkPSJGaWxsLTEiIGQ9Ik00My45MTEsNDIuNTEyNyBDNDMuOTQ0LDQyLjI2NTcgNDMuODQ5LDQyLjEzNzcgNDMuNzc0LDQyLjA2MjcgTDM4LjIxMiwzNi42NDk3IEMzNy44MDgsMzcuMTY4NyAzNy4zNTgsMzcuNjQ2NyAzNi44NjgsMzguMDg0NyBMNDIuMjU2LDQzLjU5ODcgQzQyLjU5Myw0My45MzI3IDQzLjE2Nyw0My42MDU3IDQzLjQ3Myw0My4zMDA3IEM0My43MTgsNDMuMDU1NyA0My44NzcsNDIuNzY4NyA0My45MTEsNDIuNTEyNyBMNDMuOTExLDQyLjUxMjcgWiBNMjkuNTkxLDM4Ljg3OTcgQzM0LjUyLDM4Ljg3OTcgMzguNTMsMzQuODY5NyAzOC41MywyOS45Mzk3IEMzOC41MywyNS4wMTA3IDM0LjUyLDIwLjk5OTcgMjkuNTkxLDIwLjk5OTcgQzI0LjY2MSwyMC45OTk3IDIwLjY1MSwyNS4wMTA3IDIwLjY1MSwyOS45Mzk3IEMyMC42NTEsMzQuODY5NyAyNC42NjEsMzguODc5NyAyOS41OTEsMzguODc5NyBMMjkuNTkxLDM4Ljg3OTcgWiBNNDUuMTc5LDQwLjYzODcgQzQ1Ljc1MSw0MS4yMTE3IDQ2LjAwMiw0MS45Njc3IDQ1Ljg5Myw0Mi43NzY3IEM0NS44MDIsNDMuNDcwNyA0NS40NDMsNDQuMTU4NyA0NC44ODcsNDQuNzE1NyBDNDQuMjEzLDQ1LjM4ODcgNDMuMzg5LDQ1LjczMzcgNDIuNjA0LDQ1LjczMzcgQzQxLjk1LDQ1LjczMzcgNDEuMzIzLDQ1LjQ5MjcgNDAuODM0LDQ1LjAwNTcgTDM1LjI0NywzOS4yODY3IEMzMy41OTQsNDAuMjkwNyAzMS42NjIsNDAuODc5NyAyOS41OTEsNDAuODc5NyBDMjMuNTU4LDQwLjg3OTcgMTguNjUxLDM1Ljk3MTcgMTguNjUxLDI5LjkzOTcgQzE4LjY1MSwyMy45MDc3IDIzLjU1OCwxOC45OTk3IDI5LjU5MSwxOC45OTk3IEMzNS42MjMsMTguOTk5NyA0MC41MywyMy45MDc3IDQwLjUzLDI5LjkzOTcgQzQwLjUzLDMxLjczODcgNDAuMDg2LDMzLjQzMjcgMzkuMzE0LDM0LjkzMDcgTDQ1LjE3OSw0MC42Mzg3IFogTTQ2LDYuOTk5NyBMNDYsMjguOTk5NyBMNDQsMjguOTk5NyBMNDQsNi45OTk3IEM0NCw1LjM0NTcgNDIuNjU0LDMuOTk5NyA0MSwzLjk5OTcgTDcsMy45OTk3IEM1LjM0NiwzLjk5OTcgNCw1LjM0NTcgNCw2Ljk5OTcgTDQsNDAuOTk5NyBDNCw0Mi42NTQ3IDUuMzQ2LDQzLjk5OTcgNyw0My45OTk3IEwyOSw0My45OTk3IEwyOSw0NS45OTk3IEw3LDQ1Ljk5OTcgQzQuMjQzLDQ1Ljk5OTcgMiw0My43NTY3IDIsNDAuOTk5NyBMMiw2Ljk5OTcgQzIsNC4yNDI3IDQuMjQzLDEuOTk5NyA3LDEuOTk5NyBMNDEsMS45OTk3IEM0My43NTcsMS45OTk3IDQ2LDQuMjQyNyA0Niw2Ljk5OTcgTDQ2LDYuOTk5NyBaIi8+JiN4YTsgICAgPC9nPiYjeGE7PC9zdmc+;fontColor=#FFFFFF;" vertex="1" parent="1">
          <mxGeometry x="1191" y="336" width="48" height="48" as="geometry" />
        </mxCell>
        <mxCell id="OJRusn0S9WetoyBH75iF-70" style="edgeStyle=orthogonalEdgeStyle;rounded=0;orthogonalLoop=1;jettySize=auto;html=1;strokeColor=#FFFFFF;flowAnimation=1;" edge="1" parent="1" source="OJRusn0S9WetoyBH75iF-69" target="OJRusn0S9WetoyBH75iF-40">
          <mxGeometry relative="1" as="geometry" />
        </mxCell>
        <mxCell id="OJRusn0S9WetoyBH75iF-69" value="" style="shape=image;verticalLabelPosition=bottom;labelBackgroundColor=default;verticalAlign=top;aspect=fixed;imageAspect=0;image=data:image/svg+xml,PHN2ZyB4bWxuczp4bGluaz0iaHR0cDovL3d3dy53My5vcmcvMTk5OS94bGluayIgeG1sbnM9Imh0dHA6Ly93d3cudzMub3JnLzIwMDAvc3ZnIiB2ZXJzaW9uPSIxLjEiIHZpZXdCb3g9IjAgMCA0OCA0OCIgaGVpZ2h0PSI0OHB4IiB3aWR0aD0iNDhweCI+JiN4YTsgICAgPHRpdGxlPkljb24tUmVzb3VyY2UvR2VuZXJhbC1SZXNvdXJjZS9SZXNfQXV0aGVudGljYXRlZC1Vc2VyXzQ4X0Rhcms8L3RpdGxlPiYjeGE7ICAgIDxnIGZpbGwtcnVsZT0iZXZlbm9kZCIgZmlsbD0ibm9uZSIgc3Ryb2tlLXdpZHRoPSIxIiBzdHJva2U9Im5vbmUiIGlkPSJJY29uLVJlc291cmNlL0dlbmVyYWwtUmVzb3VyY2UvUmVzX0F1dGhlbnRpY2F0ZWQtVXNlcl80OCI+JiN4YTsgICAgICAgIDxwYXRoIGZpbGw9IiNGRkZGRkYiIGlkPSJGaWxsLTEiIGQ9Ik0yMi4wMDEsMjMuNzU2OCBDMjcuNDA4LDIzLjc1NjggMzEuODA4LDE5LjMyNDggMzEuODA4LDEzLjg3ODggQzMxLjgwOCw4LjQzMTggMjcuNDA4LDMuOTk5OCAyMi4wMDEsMy45OTk4IEMxNi41OTMsMy45OTk4IDEyLjE5Miw4LjQzMTggMTIuMTkyLDEzLjg3ODggQzEyLjE5MiwxOS4zMjQ4IDE2LjU5MywyMy43NTY4IDIyLjAwMSwyMy43NTY4IEwyMi4wMDEsMjMuNzU2OCBaIE00LjAyNSw0My45OTk4IEwyOCw0My45OTk4IEwyOCw0NS45OTk4IEwzLDQ1Ljk5OTggQzIuNDQ3LDQ1Ljk5OTggMiw0NS41NTE4IDIsNDQuOTk5OCBDMiwzNS4xOTk4IDguNTQ1LDI2Ljk4MDggMTcuMzE4LDI0Ljc3NzggQzEzLjEzLDIyLjk0OTggMTAuMTkyLDE4Ljc1NDggMTAuMTkyLDEzLjg3ODggQzEwLjE5Miw3LjMyODggMTUuNDg5LDEuOTk5OCAyMi4wMDEsMS45OTk4IEMyOC41MTEsMS45OTk4IDMzLjgwOCw3LjMyODggMzMuODA4LDEzLjg3ODggQzMzLjgwOCwxOC43NTI4IDMwLjg3MSwyMi45NDc4IDI2LjY4NywyNC43NzU4IEMyNy42LDI1LjAwNDggMjguNTAzLDI1LjI3ODggMjkuMzgyLDI1LjY0MjggQzI5LjU2LDI1LjcxNTggMjkuNzM0LDI1Ljc5MDggMjkuOTA4LDI1Ljg2ODggTDI5LjA4OCwyNy42OTM4IEMyOC45MzIsMjcuNjIyOCAyOC43NzQsMjcuNTU1OCAyOC42MTYsMjcuNDg5OCBDMjYuNTEyLDI2LjYxOTggMjQuMjg1LDI2LjE3NzggMjIsMjYuMTc3OCBDMTIuMzk2LDI2LjE3NzggNC41MjQsMzQuMDg0OCA0LjAyNSw0My45OTk4IEw0LjAyNSw0My45OTk4IFogTTQ0LDM2LjQ5OTggQzQ0LDMyLjM2MzggNDAuNjM2LDI4Ljk5OTggMzYuNSwyOC45OTk4IEMzMi4zNjQsMjguOTk5OCAyOSwzMi4zNjM4IDI5LDM2LjQ5OTggQzI5LDQwLjYzNTggMzIuMzY0LDQzLjk5OTggMzYuNSw0My45OTk4IEM0MC42MzYsNDMuOTk5OCA0NCw0MC42MzU4IDQ0LDM2LjQ5OTggTDQ0LDM2LjQ5OTggWiBNNDYsMzYuNDk5OCBDNDYsNDEuNzM3OCA0MS43MzgsNDUuOTk5OCAzNi41LDQ1Ljk5OTggQzMxLjI2Miw0NS45OTk4IDI3LDQxLjczNzggMjcsMzYuNDk5OCBDMjcsMzEuMjYxOCAzMS4yNjIsMjYuOTk5OCAzNi41LDI2Ljk5OTggQzQxLjczOCwyNi45OTk4IDQ2LDMxLjI2MTggNDYsMzYuNDk5OCBMNDYsMzYuNDk5OCBaIE00MC4yOTMsMzIuODc1OCBMNDEuNzA3LDM0LjI4OTggTDM1LjcwNyw0MC4yODk4IEMzNS41MTIsNDAuNDg1OCAzNS4yNTYsNDAuNTgyOCAzNSw0MC41ODI4IEMzNC43NDQsNDAuNTgyOCAzNC40ODgsNDAuNDg1OCAzNC4yOTMsNDAuMjg5OCBMMzEuMjkzLDM3LjI4OTggTDMyLjcwNywzNS44NzU4IEwzNSwzOC4xNjg4IEw0MC4yOTMsMzIuODc1OCBaIi8+JiN4YTsgICAgPC9nPiYjeGE7PC9zdmc+;" vertex="1" parent="1">
          <mxGeometry x="60" y="136" width="48" height="48" as="geometry" />
        </mxCell>
      </root>
    </mxGraphModel>
  </diagram>
</mxfile>
